<svg width="1322" height="293" xmlns="http://www.w3.org/2000/svg" xmlns:xlink="http://www.w3.org/1999/xlink" overflow="hidden"><defs><filter id="fx0" x="-10%" y="-10%" width="120%" height="120%" filterUnits="userSpaceOnUse" primitiveUnits="userSpaceOnUse"><feComponentTransfer color-interpolation-filters="sRGB"><feFuncR type="discrete" tableValues="0 0"/><feFuncG type="discrete" tableValues="0 0"/><feFuncB type="discrete" tableValues="0 0"/><feFuncA type="linear" slope="0.34902" intercept="0"/></feComponentTransfer><feGaussianBlur stdDeviation="1.39983 1.39983"/></filter><filter id="fx1" x="-10%" y="-10%" width="120%" height="120%" filterUnits="userSpaceOnUse" primitiveUnits="userSpaceOnUse"><feComponentTransfer color-interpolation-filters="sRGB"><feFuncR type="discrete" tableValues="0 0"/><feFuncG type="discrete" tableValues="0 0"/><feFuncB type="discrete" tableValues="0 0"/><feFuncA type="linear" slope="0.34902" intercept="0"/></feComponentTransfer><feGaussianBlur stdDeviation="1.39983 1.39983"/></filter><filter id="fx2" x="-10%" y="-10%" width="120%" height="120%" filterUnits="userSpaceOnUse" primitiveUnits="userSpaceOnUse"><feComponentTransfer color-interpolation-filters="sRGB"><feFuncR type="discrete" tableValues="0 0"/><feFuncG type="discrete" tableValues="0 0"/><feFuncB type="discrete" tableValues="0 0"/><feFuncA type="linear" slope="0.34902" intercept="0"/></feComponentTransfer><feGaussianBlur stdDeviation="1.39983 1.39983"/></filter><filter id="fx3" x="-10%" y="-10%" width="120%" height="120%" filterUnits="userSpaceOnUse" primitiveUnits="userSpaceOnUse"><feComponentTransfer color-interpolation-filters="sRGB"><feFuncR type="discrete" tableValues="0 0"/><feFuncG type="discrete" tableValues="0 0"/><feFuncB type="discrete" tableValues="0 0"/><feFuncA type="linear" slope="0.34902" intercept="0"/></feComponentTransfer><feGaussianBlur stdDeviation="1.39983 1.39983"/></filter><filter id="fx4" x="-10%" y="-10%" width="120%" height="120%" filterUnits="userSpaceOnUse" primitiveUnits="userSpaceOnUse"><feComponentTransfer color-interpolation-filters="sRGB"><feFuncR type="discrete" tableValues="0 0"/><feFuncG type="discrete" tableValues="0 0"/><feFuncB type="discrete" tableValues="0 0"/><feFuncA type="linear" slope="0.34902" intercept="0"/></feComponentTransfer><feGaussianBlur stdDeviation="1.39983 1.39983"/></filter><filter id="fx5" x="-10%" y="-10%" width="120%" height="120%" filterUnits="userSpaceOnUse" primitiveUnits="userSpaceOnUse"><feComponentTransfer color-interpolation-filters="sRGB"><feFuncR type="discrete" tableValues="0 0"/><feFuncG type="discrete" tableValues="0 0"/><feFuncB type="discrete" tableValues="0 0"/><feFuncA type="linear" slope="0.34902" intercept="0"/></feComponentTransfer><feGaussianBlur stdDeviation="1.39983 1.39983"/></filter><filter id="fx6" x="-10%" y="-10%" width="120%" height="120%" filterUnits="userSpaceOnUse" primitiveUnits="userSpaceOnUse"><feComponentTransfer color-interpolation-filters="sRGB"><feFuncR type="discrete" tableValues="0 0"/><feFuncG type="discrete" tableValues="0 0"/><feFuncB type="discrete" tableValues="0 0"/><feFuncA type="linear" slope="0.34902" intercept="0"/></feComponentTransfer><feGaussianBlur stdDeviation="1.39983 1.39983"/></filter><filter id="fx7" x="-10%" y="-10%" width="120%" height="120%" filterUnits="userSpaceOnUse" primitiveUnits="userSpaceOnUse"><feComponentTransfer color-interpolation-filters="sRGB"><feFuncR type="discrete" tableValues="0 0"/><feFuncG type="discrete" tableValues="0 0"/><feFuncB type="discrete" tableValues="0 0"/><feFuncA type="linear" slope="0.34902" intercept="0"/></feComponentTransfer><feGaussianBlur stdDeviation="1.39983 1.39983"/></filter><filter id="fx8" x="-10%" y="-10%" width="120%" height="120%" filterUnits="userSpaceOnUse" primitiveUnits="userSpaceOnUse"><feComponentTransfer color-interpolation-filters="sRGB"><feFuncR type="discrete" tableValues="0 0"/><feFuncG type="discrete" tableValues="0 0"/><feFuncB type="discrete" tableValues="0 0"/><feFuncA type="linear" slope="0.34902" intercept="0"/></feComponentTransfer><feGaussianBlur stdDeviation="1.39983 1.39983"/></filter><filter id="fx9" x="-10%" y="-10%" width="120%" height="120%" filterUnits="userSpaceOnUse" primitiveUnits="userSpaceOnUse"><feComponentTransfer color-interpolation-filters="sRGB"><feFuncR type="discrete" tableValues="0 0"/><feFuncG type="discrete" tableValues="0 0"/><feFuncB type="discrete" tableValues="0 0"/><feFuncA type="linear" slope="0.34902" intercept="0"/></feComponentTransfer><feGaussianBlur stdDeviation="1.39983 1.39983"/></filter><filter id="fx10" x="-10%" y="-10%" width="120%" height="120%" filterUnits="userSpaceOnUse" primitiveUnits="userSpaceOnUse"><feComponentTransfer color-interpolation-filters="sRGB"><feFuncR type="discrete" tableValues="0 0"/><feFuncG type="discrete" tableValues="0 0"/><feFuncB type="discrete" tableValues="0 0"/><feFuncA type="linear" slope="0.380392" intercept="0"/></feComponentTransfer><feGaussianBlur stdDeviation="1.39983 1.39983"/></filter><filter id="fx11" x="-10%" y="-10%" width="120%" height="120%" filterUnits="userSpaceOnUse" primitiveUnits="userSpaceOnUse"><feComponentTransfer color-interpolation-filters="sRGB"><feFuncR type="discrete" tableValues="0 0"/><feFuncG type="discrete" tableValues="0 0"/><feFuncB type="discrete" tableValues="0 0"/><feFuncA type="linear" slope="0.380392" intercept="0"/></feComponentTransfer><feGaussianBlur stdDeviation="1.39983 1.39983"/></filter><filter id="fx12" x="-10%" y="-10%" width="120%" height="120%" filterUnits="userSpaceOnUse" primitiveUnits="userSpaceOnUse"><feComponentTransfer color-interpolation-filters="sRGB"><feFuncR type="discrete" tableValues="0 0"/><feFuncG type="discrete" tableValues="0 0"/><feFuncB type="discrete" tableValues="0 0"/><feFuncA type="linear" slope="0.380392" intercept="0"/></feComponentTransfer><feGaussianBlur stdDeviation="1.39983 1.39983"/></filter><filter id="fx13" x="-10%" y="-10%" width="120%" height="120%" filterUnits="userSpaceOnUse" primitiveUnits="userSpaceOnUse"><feComponentTransfer color-interpolation-filters="sRGB"><feFuncR type="discrete" tableValues="0 0"/><feFuncG type="discrete" tableValues="0 0"/><feFuncB type="discrete" tableValues="0 0"/><feFuncA type="linear" slope="0.380392" intercept="0"/></feComponentTransfer><feGaussianBlur stdDeviation="1.39983 1.39983"/></filter><filter id="fx14" x="-10%" y="-10%" width="120%" height="120%" filterUnits="userSpaceOnUse" primitiveUnits="userSpaceOnUse"><feComponentTransfer color-interpolation-filters="sRGB"><feFuncR type="discrete" tableValues="0 0"/><feFuncG type="discrete" tableValues="0 0"/><feFuncB type="discrete" tableValues="0 0"/><feFuncA type="linear" slope="0.380392" intercept="0"/></feComponentTransfer><feGaussianBlur stdDeviation="1.39983 1.39983"/></filter><filter id="fx15" x="-10%" y="-10%" width="120%" height="120%" filterUnits="userSpaceOnUse" primitiveUnits="userSpaceOnUse"><feComponentTransfer color-interpolation-filters="sRGB"><feFuncR type="discrete" tableValues="0 0"/><feFuncG type="discrete" tableValues="0 0"/><feFuncB type="discrete" tableValues="0 0"/><feFuncA type="linear" slope="0.380392" intercept="0"/></feComponentTransfer><feGaussianBlur stdDeviation="1.39983 1.39983"/></filter><clipPath id="clip16"><path d="M566.5 50.5001 566.5 106.5 796.5 106.5 796.5 50.5001ZM20 49 1342 49 1342 342 20 342Z" fill-rule="evenodd" clip-rule="evenodd"/></clipPath><clipPath id="clip17"><path d="M566.5 164.5 566.5 220.5 796.5 220.5 796.5 164.5ZM20 49 1342 49 1342 342 20 342Z" fill-rule="evenodd" clip-rule="evenodd"/></clipPath><clipPath id="clip18"><path d="M26.5001 278.5 26.5001 334.5 256.5 334.5 256.5 278.5ZM20 49 1342 49 1342 342 20 342Z" fill-rule="evenodd" clip-rule="evenodd"/></clipPath><clipPath id="clip19"><rect x="1" y="1" width="243" height="69"/></clipPath><clipPath id="clip20"><rect x="7" y="7" width="93" height="21"/></clipPath><clipPath id="clip21"><path d="M296.5 278.5 296.5 334.5 526.5 334.5 526.5 278.5ZM20 49 1342 49 1342 342 20 342Z" fill-rule="evenodd" clip-rule="evenodd"/></clipPath><clipPath id="clip22"><rect x="1" y="1" width="243" height="69"/></clipPath><clipPath id="clip23"><rect x="7" y="7" width="61" height="19"/></clipPath><clipPath id="clip24"><path d="M566.5 278.5 566.5 334.5 796.5 334.5 796.5 278.5ZM20 49 1342 49 1342 342 20 342Z" fill-rule="evenodd" clip-rule="evenodd"/></clipPath><clipPath id="clip25"><rect x="1" y="1" width="243" height="69"/></clipPath><clipPath id="clip26"><rect x="7" y="7" width="85" height="19"/></clipPath><clipPath id="clip27"><path d="M836.5 278.5 836.5 334.5 1066.5 334.5 1066.5 278.5ZM20 49 1342 49 1342 342 20 342Z" fill-rule="evenodd" clip-rule="evenodd"/></clipPath><clipPath id="clip28"><rect x="1" y="1" width="243" height="69"/></clipPath><clipPath id="clip29"><rect x="9" y="7" width="97" height="21"/></clipPath><clipPath id="clip30"><path d="M1106.5 278.5 1106.5 334.5 1336.5 334.5 1336.5 278.5ZM20 49 1342 49 1342 342 20 342Z" fill-rule="evenodd" clip-rule="evenodd"/></clipPath><clipPath id="clip31"><rect x="1" y="1" width="243" height="69"/></clipPath><clipPath id="clip32"><rect x="9" y="7" width="69" height="21"/></clipPath><clipPath id="clip33"><rect x="5" y="-1" width="19" height="71"/></clipPath><clipPath id="clip34"><rect x="9" y="1" width="551" height="73"/></clipPath><clipPath id="clip35"><rect x="9" y="1" width="281" height="73"/></clipPath><clipPath id="clip36"><rect x="5" y="-1" width="19" height="71"/></clipPath><clipPath id="clip37"><rect x="-1" y="1" width="283" height="73"/></clipPath><clipPath id="clip38"><rect x="-1" y="1" width="553" height="73"/></clipPath></defs><g transform="translate(-20 -49)"><g clip-path="url(#clip16)"><rect x="569.328" y="53.3285" width="230" height="56" fill="#BFBFBF"/><path d="M569.995 53.9951 569.995 108.662 798.662 108.662 798.662 53.9951ZM569.328 52.6618 799.328 52.6618C799.697 52.6618 799.995 52.9603 799.995 53.3285L799.995 109.328C799.995 109.697 799.697 109.995 799.328 109.995L569.328 109.995C568.96 109.995 568.662 109.697 568.662 109.328L568.662 53.3285C568.662 52.9603 568.96 52.6618 569.328 52.6618Z" fill="#BFBFBF" fill-rule="evenodd"/><path d="M642.017 85.6284 643.815 77.0386 646.476 77.0386C646.96 77.0386 647.319 77.0581 647.554 77.0972 647.937 77.1636 648.26 77.2798 648.523 77.4458 648.787 77.6118 648.991 77.8384 649.136 78.1255 649.28 78.4126 649.353 78.73 649.353 79.0777 649.353 79.5503 649.223 79.9663 648.963 80.3257 648.703 80.6851 648.306 80.9585 647.771 81.146 648.235 81.2983 648.583 81.5278 648.813 81.8345 649.044 82.1411 649.159 82.4995 649.159 82.9097 649.159 83.3823 649.023 83.8355 648.752 84.2691 648.48 84.7027 648.121 85.0376 647.674 85.2739 647.227 85.5103 646.728 85.6284 646.177 85.6284ZM644.196 80.7066 645.937 80.7066C646.769 80.7066 647.367 80.5737 647.732 80.3081 648.098 80.0425 648.28 79.6558 648.28 79.148 648.28 78.9058 648.224 78.6968 648.11 78.521 647.997 78.3452 647.846 78.2173 647.656 78.1372 647.467 78.0571 647.11 78.0171 646.587 78.0171L644.759 78.0171ZM643.37 84.6558 645.327 84.6558C645.847 84.6558 646.196 84.6382 646.376 84.603 646.739 84.5405 647.034 84.4341 647.261 84.2837 647.487 84.1333 647.665 83.9351 647.794 83.689 647.923 83.4429 647.987 83.1851 647.987 82.9155 647.987 82.5132 647.861 82.2075 647.609 81.9985 647.357 81.7896 646.878 81.6851 646.171 81.6851L643.991 81.6851ZM654.089 84.855C653.722 85.1714 653.368 85.4028 653.028 85.5493 652.688 85.6958 652.325 85.7691 651.938 85.7691 651.364 85.7691 650.901 85.6001 650.55 85.2622 650.198 84.9243 650.022 84.4917 650.022 83.9644 650.022 83.6167 650.102 83.3091 650.26 83.0415 650.418 82.7739 650.628 82.5591 650.89 82.397 651.151 82.2349 651.472 82.1187 651.851 82.0483 652.089 82.0015 652.541 81.9644 653.207 81.937 653.873 81.9097 654.351 81.8394 654.64 81.7261 654.722 81.437 654.763 81.1968 654.763 81.0054 654.763 80.7593 654.673 80.5659 654.493 80.4253 654.247 80.23 653.888 80.1323 653.415 80.1323 652.97 80.1323 652.605 80.231 652.322 80.4282 652.039 80.6255 651.833 80.9058 651.704 81.2691L650.632 81.1753C650.851 80.5581 651.197 80.0855 651.672 79.7573 652.146 79.4292 652.745 79.2652 653.468 79.2652 654.237 79.2652 654.847 79.4487 655.296 79.8159 655.64 80.0894 655.812 80.4448 655.812 80.8823 655.812 81.2144 655.763 81.5991 655.665 82.0366L655.319 83.5835C655.21 84.0757 655.155 84.4761 655.155 84.7847 655.155 84.98 655.198 85.2612 655.284 85.6284L654.212 85.6284C654.153 85.4253 654.112 85.1675 654.089 84.855ZM654.481 82.4761C654.333 82.5347 654.174 82.5796 654.004 82.6109 653.834 82.6421 653.55 82.6753 653.151 82.7105 652.534 82.7652 652.099 82.8345 651.845 82.9185 651.591 83.0024 651.399 83.1362 651.271 83.3198 651.142 83.5034 651.077 83.7066 651.077 83.9292 651.077 84.2261 651.18 84.4702 651.385 84.6616 651.59 84.853 651.882 84.9487 652.261 84.9487 652.612 84.9487 652.95 84.856 653.274 84.6704 653.599 84.4849 653.854 84.2261 654.042 83.8941 654.229 83.562 654.376 83.0894 654.481 82.4761ZM656.993 83.5015 658.054 83.437C658.054 83.7417 658.101 84.0015 658.194 84.2163 658.288 84.4312 658.461 84.6069 658.713 84.7437 658.965 84.8804 659.259 84.9487 659.595 84.9487 660.063 84.9487 660.415 84.855 660.649 84.6675 660.884 84.48 661.001 84.2593 661.001 84.0054 661.001 83.8218 660.931 83.648 660.79 83.4839 660.646 83.3198 660.293 83.1177 659.732 82.8774 659.172 82.6372 658.813 82.4683 658.657 82.3706 658.396 82.2105 658.198 82.022 658.065 81.8052 657.933 81.5884 657.866 81.3394 657.866 81.0581 657.866 80.5659 658.062 80.1441 658.452 79.7925 658.843 79.4409 659.39 79.2652 660.093 79.2652 660.874 79.2652 661.469 79.4458 661.877 79.8071 662.285 80.1685 662.497 80.6441 662.513 81.2339L661.476 81.3042C661.46 80.9292 661.327 80.6323 661.077 80.4136 660.827 80.1948 660.474 80.0855 660.017 80.0855 659.649 80.0855 659.364 80.1694 659.161 80.3374 658.958 80.5054 658.856 80.687 658.856 80.8823 658.856 81.0777 658.944 81.2495 659.12 81.398 659.237 81.4995 659.54 81.6558 660.028 81.8667 660.841 82.2183 661.353 82.4956 661.563 82.6987 661.899 83.023 662.067 83.4175 662.067 83.8823 662.067 84.1909 661.973 84.4937 661.783 84.7905 661.594 85.0874 661.305 85.3247 660.916 85.5024 660.527 85.6802 660.069 85.7691 659.542 85.7691 658.823 85.7691 658.212 85.5913 657.708 85.2359 657.204 84.8804 656.966 84.3023 656.993 83.5015ZM667.464 83.5132 668.495 83.6187C668.347 84.1304 668.006 84.6167 667.473 85.0777 666.939 85.5386 666.304 85.7691 665.565 85.7691 665.104 85.7691 664.682 85.6626 664.297 85.4497 663.912 85.2368 663.619 84.9273 663.418 84.521 663.217 84.1148 663.116 83.6519 663.116 83.1323 663.116 82.4527 663.273 81.7935 663.588 81.1548 663.902 80.5161 664.31 80.0415 664.81 79.731 665.31 79.4204 665.851 79.2652 666.433 79.2652 667.175 79.2652 667.768 79.4956 668.211 79.9566 668.654 80.4175 668.876 81.0464 668.876 81.8433 668.876 82.148 668.849 82.4605 668.794 82.7808L664.212 82.7808C664.196 82.9019 664.188 83.0112 664.188 83.1089 664.188 83.6909 664.322 84.1353 664.59 84.4419 664.857 84.7485 665.185 84.9019 665.571 84.9019 665.935 84.9019 666.292 84.7827 666.644 84.5444 666.995 84.3062 667.269 83.9624 667.464 83.5132ZM664.382 81.9722 667.874 81.9722C667.878 81.8628 667.88 81.7847 667.88 81.7378 667.88 81.2066 667.747 80.7993 667.481 80.5161 667.216 80.2329 666.874 80.0913 666.456 80.0913 666.003 80.0913 665.59 80.2476 665.217 80.5601 664.844 80.8726 664.565 81.3433 664.382 81.9722ZM669.034 85.6284 670.833 77.0386 677.032 77.0386 676.827 78.0171 671.776 78.0171 671.214 80.689 676.136 80.689 675.931 81.6675 671.009 81.6675 670.388 84.6558 675.796 84.6558 675.591 85.6284ZM678.464 85.6284 677.444 79.4058 678.476 79.4058 679.009 82.8335C679.067 83.2085 679.14 83.8198 679.226 84.6675 679.429 84.2261 679.688 83.7202 680.005 83.1499L682.085 79.4058 683.204 79.4058 679.642 85.6284ZM687.464 83.5132 688.495 83.6187C688.347 84.1304 688.006 84.6167 687.473 85.0777 686.939 85.5386 686.304 85.7691 685.565 85.7691 685.104 85.7691 684.682 85.6626 684.297 85.4497 683.912 85.2368 683.619 84.9273 683.418 84.521 683.217 84.1148 683.116 83.6519 683.116 83.1323 683.116 82.4527 683.273 81.7935 683.588 81.1548 683.902 80.5161 684.31 80.0415 684.81 79.731 685.31 79.4204 685.851 79.2652 686.433 79.2652 687.175 79.2652 687.768 79.4956 688.211 79.9566 688.654 80.4175 688.876 81.0464 688.876 81.8433 688.876 82.148 688.849 82.4605 688.794 82.7808L684.212 82.7808C684.196 82.9019 684.188 83.0112 684.188 83.1089 684.188 83.6909 684.322 84.1353 684.59 84.4419 684.857 84.7485 685.185 84.9019 685.571 84.9019 685.935 84.9019 686.292 84.7827 686.644 84.5444 686.995 84.3062 687.269 83.9624 687.464 83.5132ZM684.382 81.9722 687.874 81.9722C687.878 81.8628 687.88 81.7847 687.88 81.7378 687.88 81.2066 687.747 80.7993 687.481 80.5161 687.216 80.2329 686.874 80.0913 686.456 80.0913 686.003 80.0913 685.59 80.2476 685.217 80.5601 684.844 80.8726 684.565 81.3433 684.382 81.9722ZM689.894 85.6284 691.194 79.4058 692.155 79.4058 691.927 80.4898C692.345 80.064 692.735 79.7534 693.099 79.5581 693.462 79.3628 693.833 79.2652 694.212 79.2652 694.716 79.2652 695.111 79.4019 695.398 79.6753 695.686 79.9487 695.829 80.314 695.829 80.771 695.829 81.0015 695.778 81.3648 695.677 81.8608L694.886 85.6284 693.825 85.6284 694.651 81.6851C694.733 81.3023 694.774 81.0191 694.774 80.8355 694.774 80.6284 694.703 80.4605 694.561 80.3316 694.418 80.2027 694.212 80.1382 693.942 80.1382 693.399 80.1382 692.916 80.3335 692.492 80.7241 692.068 81.1148 691.757 81.7847 691.558 82.7339L690.954 85.6284ZM699.372 84.7671 699.196 85.6343C698.942 85.7007 698.696 85.7339 698.458 85.7339 698.036 85.7339 697.7 85.6304 697.45 85.4234 697.263 85.2671 697.169 85.0542 697.169 84.7847 697.169 84.648 697.22 84.3335 697.321 83.8413L698.077 80.2261 697.239 80.2261 697.409 79.4058 698.247 79.4058 698.569 77.8765 699.782 77.1441 699.308 79.4058 700.351 79.4058 700.175 80.2261 699.138 80.2261 698.417 83.6655C698.327 84.103 698.282 84.3648 698.282 84.4507 698.282 84.5757 698.318 84.6714 698.391 84.7378 698.463 84.8042 698.581 84.8374 698.745 84.8374 698.979 84.8374 699.188 84.814 699.372 84.7671ZM702.22 85.6284 703.808 78.0171 700.989 78.0171 701.194 77.0386 707.956 77.0386 707.751 78.0171 704.956 78.0171 703.368 85.6284ZM706.495 88.0308 706.56 87.0347C706.778 87.0972 706.991 87.1284 707.198 87.1284 707.413 87.1284 707.587 87.0796 707.72 86.9819 707.892 86.853 708.079 86.6109 708.282 86.2554L708.622 85.646 707.585 79.4058 708.628 79.4058 709.097 82.5523C709.19 83.1734 709.271 83.7944 709.337 84.4155L712.12 79.4058 713.228 79.4058 709.261 86.4546C708.878 87.1421 708.538 87.5972 708.241 87.8198 707.944 88.0425 707.603 88.1538 707.216 88.1538 706.97 88.1538 706.729 88.1128 706.495 88.0308ZM712.372 88.0132 714.171 79.4058 715.149 79.4058 714.968 80.273C715.331 79.8941 715.656 79.6314 715.943 79.4849 716.23 79.3384 716.534 79.2652 716.854 79.2652 717.448 79.2652 717.94 79.481 718.331 79.9126 718.722 80.3442 718.917 80.9624 718.917 81.7671 718.917 82.4155 718.81 83.0064 718.595 83.5396 718.38 84.0728 718.116 84.5015 717.804 84.8257 717.491 85.1499 717.175 85.3882 716.854 85.5405 716.534 85.6929 716.206 85.7691 715.87 85.7691 715.124 85.7691 714.546 85.3902 714.136 84.6323L713.433 88.0132ZM714.47 83.0855C714.47 83.5503 714.503 83.8726 714.569 84.0523 714.667 84.3062 714.827 84.5112 715.05 84.6675 715.272 84.8237 715.53 84.9019 715.823 84.9019 716.433 84.9019 716.925 84.5591 717.3 83.8735 717.675 83.188 717.862 82.4878 717.862 81.773 717.862 81.2456 717.736 80.8384 717.484 80.5513 717.232 80.2642 716.919 80.1206 716.544 80.1206 716.274 80.1206 716.024 80.1919 715.794 80.3345 715.563 80.4771 715.35 80.6899 715.152 80.9732 714.955 81.2564 714.792 81.603 714.663 82.0132 714.534 82.4233 714.47 82.7808 714.47 83.0855ZM724.464 83.5132 725.495 83.6187C725.347 84.1304 725.006 84.6167 724.473 85.0777 723.939 85.5386 723.304 85.7691 722.565 85.7691 722.104 85.7691 721.682 85.6626 721.297 85.4497 720.912 85.2368 720.619 84.9273 720.418 84.521 720.217 84.1148 720.116 83.6519 720.116 83.1323 720.116 82.4527 720.273 81.7935 720.588 81.1548 720.902 80.5161 721.31 80.0415 721.81 79.731 722.31 79.4204 722.851 79.2652 723.433 79.2652 724.175 79.2652 724.768 79.4956 725.211 79.9566 725.654 80.4175 725.876 81.0464 725.876 81.8433 725.876 82.148 725.849 82.4605 725.794 82.7808L721.212 82.7808C721.196 82.9019 721.188 83.0112 721.188 83.1089 721.188 83.6909 721.322 84.1353 721.59 84.4419 721.857 84.7485 722.185 84.9019 722.571 84.9019 722.935 84.9019 723.292 84.7827 723.644 84.5444 723.995 84.3062 724.269 83.9624 724.464 83.5132ZM721.382 81.9722 724.874 81.9722C724.878 81.8628 724.88 81.7847 724.88 81.7378 724.88 81.2066 724.747 80.7993 724.481 80.5161 724.216 80.2329 723.874 80.0913 723.456 80.0913 723.003 80.0913 722.59 80.2476 722.217 80.5601 721.844 80.8726 721.565 81.3433 721.382 81.9722Z" fill="#BFBFBF"/></g><rect x="566.5" y="50.5001" width="230" height="56" stroke="#444444" stroke-width="1.33333" stroke-linejoin="round" stroke-miterlimit="10" fill="#EEF3FA"/><text fill="#111111" font-family="Arial,Arial_MSFontService,sans-serif" font-style="italic" font-weight="400" font-size="12" transform="translate(638.667 83)">BaseEventType</text><g clip-path="url(#clip17)"><rect x="569.328" y="167.328" width="230" height="56" fill="#BFBFBF"/><path d="M569.995 167.995 569.995 222.662 798.662 222.662 798.662 167.995ZM569.328 166.662 799.328 166.662C799.697 166.662 799.995 166.96 799.995 167.328L799.995 223.328C799.995 223.697 799.697 223.995 799.328 223.995L569.328 223.995C568.96 223.995 568.662 223.697 568.662 223.328L568.662 167.328C568.662 166.96 568.96 166.662 569.328 166.662Z" fill="#BFBFBF" fill-rule="evenodd"/><path d="M581.421 199.628 581.421 191.039 584.38 191.039C585.048 191.039 585.558 191.08 585.909 191.162 586.401 191.275 586.821 191.48 587.169 191.777 587.622 192.16 587.961 192.649 588.186 193.245 588.41 193.84 588.522 194.521 588.522 195.287 588.522 195.939 588.446 196.517 588.294 197.021 588.142 197.525 587.946 197.942 587.708 198.272 587.47 198.602 587.209 198.862 586.926 199.051 586.643 199.241 586.301 199.384 585.9 199.482 585.5 199.58 585.04 199.628 584.521 199.628ZM582.558 198.615 584.392 198.615C584.958 198.615 585.402 198.562 585.725 198.457 586.047 198.351 586.304 198.203 586.495 198.011 586.765 197.742 586.975 197.379 587.125 196.924 587.275 196.469 587.351 195.917 587.351 195.269 587.351 194.371 587.203 193.68 586.908 193.198 586.613 192.715 586.255 192.392 585.833 192.228 585.528 192.111 585.038 192.052 584.362 192.052L582.558 192.052ZM594.546 197.625 595.636 197.759C595.464 198.396 595.146 198.89 594.681 199.242 594.216 199.593 593.622 199.769 592.899 199.769 591.989 199.769 591.268 199.489 590.734 198.928 590.201 198.368 589.935 197.582 589.935 196.57 589.935 195.523 590.204 194.71 590.743 194.132 591.282 193.554 591.981 193.265 592.841 193.265 593.673 193.265 594.353 193.548 594.88 194.115 595.407 194.681 595.671 195.478 595.671 196.505 595.671 196.568 595.669 196.662 595.665 196.787L591.024 196.787C591.063 197.47 591.257 197.994 591.604 198.357 591.952 198.72 592.386 198.902 592.905 198.902 593.292 198.902 593.622 198.8 593.896 198.597 594.169 198.394 594.386 198.07 594.546 197.625ZM591.083 195.919 594.558 195.919C594.511 195.396 594.378 195.003 594.159 194.742 593.823 194.335 593.388 194.132 592.853 194.132 592.368 194.132 591.961 194.294 591.631 194.619 591.301 194.943 591.118 195.376 591.083 195.919ZM596.538 199.628 596.538 194.226 595.606 194.226 595.606 193.406 596.538 193.406 596.538 192.744C596.538 192.326 596.575 192.015 596.649 191.812 596.751 191.539 596.93 191.317 597.186 191.147 597.441 190.977 597.8 190.892 598.261 190.892 598.558 190.892 598.886 190.927 599.245 190.998L599.087 191.917C598.868 191.878 598.661 191.859 598.466 191.859 598.146 191.859 597.919 191.927 597.786 192.064 597.653 192.201 597.587 192.457 597.587 192.832L597.587 193.406 598.8 193.406 598.8 194.226 597.587 194.226 597.587 199.628ZM604.546 197.625 605.636 197.759C605.464 198.396 605.146 198.89 604.681 199.242 604.216 199.593 603.622 199.769 602.899 199.769 601.989 199.769 601.268 199.489 600.734 198.928 600.201 198.368 599.935 197.582 599.935 196.57 599.935 195.523 600.204 194.71 600.743 194.132 601.282 193.554 601.981 193.265 602.841 193.265 603.673 193.265 604.353 193.548 604.88 194.115 605.407 194.681 605.671 195.478 605.671 196.505 605.671 196.568 605.669 196.662 605.665 196.787L601.024 196.787C601.063 197.47 601.257 197.994 601.604 198.357 601.952 198.72 602.386 198.902 602.905 198.902 603.292 198.902 603.622 198.8 603.896 198.597 604.169 198.394 604.386 198.07 604.546 197.625ZM601.083 195.919 604.558 195.919C604.511 195.396 604.378 195.003 604.159 194.742 603.823 194.335 603.388 194.132 602.853 194.132 602.368 194.132 601.961 194.294 601.631 194.619 601.301 194.943 601.118 195.376 601.083 195.919ZM606.274 199.628 606.274 193.406 607.224 193.406 607.224 194.349C607.466 193.908 607.689 193.617 607.895 193.476 608.1 193.335 608.325 193.265 608.571 193.265 608.927 193.265 609.288 193.378 609.655 193.605L609.292 194.583C609.034 194.431 608.776 194.355 608.519 194.355 608.288 194.355 608.081 194.424 607.897 194.563 607.714 194.702 607.583 194.894 607.505 195.14 607.388 195.515 607.329 195.925 607.329 196.371L607.329 199.628ZM610.274 199.628 610.274 193.406 611.224 193.406 611.224 194.349C611.466 193.908 611.689 193.617 611.895 193.476 612.1 193.335 612.325 193.265 612.571 193.265 612.927 193.265 613.288 193.378 613.655 193.605L613.292 194.583C613.034 194.431 612.776 194.355 612.519 194.355 612.288 194.355 612.081 194.424 611.897 194.563 611.714 194.702 611.583 194.894 611.505 195.14 611.388 195.515 611.329 195.925 611.329 196.371L611.329 199.628ZM618.546 197.625 619.636 197.759C619.464 198.396 619.146 198.89 618.681 199.242 618.216 199.593 617.622 199.769 616.899 199.769 615.989 199.769 615.268 199.489 614.734 198.928 614.201 198.368 613.935 197.582 613.935 196.57 613.935 195.523 614.204 194.71 614.743 194.132 615.282 193.554 615.981 193.265 616.841 193.265 617.673 193.265 618.353 193.548 618.88 194.115 619.407 194.681 619.671 195.478 619.671 196.505 619.671 196.568 619.669 196.662 619.665 196.787L615.024 196.787C615.063 197.47 615.257 197.994 615.604 198.357 615.952 198.72 616.386 198.902 616.905 198.902 617.292 198.902 617.622 198.8 617.896 198.597 618.169 198.394 618.386 198.07 618.546 197.625ZM615.083 195.919 618.558 195.919C618.511 195.396 618.378 195.003 618.159 194.742 617.823 194.335 617.388 194.132 616.853 194.132 616.368 194.132 615.961 194.294 615.631 194.619 615.301 194.943 615.118 195.376 615.083 195.919ZM625.323 199.628 625.323 198.843C624.929 199.46 624.349 199.769 623.583 199.769 623.087 199.769 622.631 199.632 622.215 199.359 621.799 199.085 621.477 198.704 621.248 198.213 621.02 197.723 620.905 197.16 620.905 196.523 620.905 195.902 621.009 195.338 621.216 194.833 621.423 194.327 621.733 193.939 622.147 193.669 622.562 193.4 623.024 193.265 623.536 193.265 623.911 193.265 624.245 193.344 624.538 193.502 624.831 193.661 625.069 193.867 625.253 194.121L625.253 191.039 626.302 191.039 626.302 199.628ZM621.989 196.523C621.989 197.32 622.157 197.916 622.493 198.31 622.829 198.705 623.226 198.902 623.683 198.902 624.144 198.902 624.535 198.713 624.857 198.336 625.18 197.959 625.341 197.384 625.341 196.611 625.341 195.759 625.177 195.134 624.849 194.736 624.521 194.337 624.116 194.138 623.636 194.138 623.167 194.138 622.775 194.33 622.461 194.712 622.146 195.095 621.989 195.699 621.989 196.523ZM628.438 199.628 628.438 191.039 632.247 191.039C633.013 191.039 633.595 191.116 633.993 191.27 634.392 191.424 634.71 191.697 634.948 192.087 635.187 192.478 635.306 192.91 635.306 193.382 635.306 193.992 635.108 194.505 634.714 194.923 634.319 195.341 633.71 195.607 632.886 195.72 633.187 195.865 633.415 196.007 633.571 196.148 633.903 196.453 634.218 196.833 634.515 197.291L636.009 199.628 634.579 199.628 633.442 197.841C633.11 197.326 632.837 196.931 632.622 196.658 632.407 196.384 632.215 196.193 632.045 196.083 631.875 195.974 631.702 195.898 631.526 195.855 631.397 195.828 631.187 195.814 630.894 195.814L629.575 195.814 629.575 199.628ZM629.575 194.83 632.019 194.83C632.538 194.83 632.944 194.776 633.237 194.668 633.53 194.561 633.753 194.389 633.905 194.153 634.058 193.917 634.134 193.66 634.134 193.382 634.134 192.976 633.986 192.642 633.691 192.38 633.396 192.119 632.931 191.988 632.294 191.988L629.575 191.988ZM640.546 197.625 641.636 197.759C641.464 198.396 641.146 198.89 640.681 199.242 640.216 199.593 639.622 199.769 638.899 199.769 637.989 199.769 637.268 199.489 636.734 198.928 636.201 198.368 635.935 197.582 635.935 196.57 635.935 195.523 636.204 194.71 636.743 194.132 637.282 193.554 637.981 193.265 638.841 193.265 639.673 193.265 640.353 193.548 640.88 194.115 641.407 194.681 641.671 195.478 641.671 196.505 641.671 196.568 641.669 196.662 641.665 196.787L637.024 196.787C637.063 197.47 637.257 197.994 637.604 198.357 637.952 198.72 638.386 198.902 638.905 198.902 639.292 198.902 639.622 198.8 639.896 198.597 640.169 198.394 640.386 198.07 640.546 197.625ZM637.083 195.919 640.558 195.919C640.511 195.396 640.378 195.003 640.159 194.742 639.823 194.335 639.388 194.132 638.853 194.132 638.368 194.132 637.961 194.294 637.631 194.619 637.301 194.943 637.118 195.376 637.083 195.919ZM647.253 202.013 647.253 198.966C647.089 199.197 646.859 199.388 646.564 199.541 646.27 199.693 645.956 199.769 645.624 199.769 644.886 199.769 644.25 199.474 643.717 198.884 643.184 198.294 642.917 197.486 642.917 196.458 642.917 195.833 643.025 195.273 643.242 194.777 643.459 194.281 643.773 193.905 644.186 193.649 644.598 193.393 645.05 193.265 645.542 193.265 646.312 193.265 646.917 193.589 647.358 194.238L647.358 193.406 648.308 193.406 648.308 202.013ZM644.001 196.5C644.001 197.3 644.169 197.901 644.505 198.301 644.841 198.702 645.243 198.902 645.712 198.902 646.161 198.902 646.548 198.711 646.872 198.331 647.196 197.95 647.358 197.371 647.358 196.593 647.358 195.765 647.188 195.142 646.846 194.724 646.504 194.306 646.103 194.097 645.642 194.097 645.185 194.097 644.797 194.292 644.479 194.68 644.16 195.069 644.001 195.675 644.001 196.5ZM654.364 199.628 654.364 198.714C653.88 199.417 653.222 199.769 652.39 199.769 652.022 199.769 651.68 199.699 651.361 199.558 651.043 199.417 650.807 199.241 650.652 199.028 650.498 198.815 650.39 198.554 650.327 198.246 650.284 198.039 650.263 197.71 650.263 197.261L650.263 193.406 651.317 193.406 651.317 196.857C651.317 197.408 651.339 197.779 651.382 197.97 651.448 198.248 651.589 198.465 651.804 198.624 652.019 198.782 652.284 198.861 652.601 198.861 652.917 198.861 653.214 198.78 653.491 198.618 653.769 198.456 653.965 198.235 654.08 197.956 654.195 197.676 654.253 197.271 654.253 196.74L654.253 193.406 655.308 193.406 655.308 199.628ZM660.546 197.625 661.636 197.759C661.464 198.396 661.146 198.89 660.681 199.242 660.216 199.593 659.622 199.769 658.899 199.769 657.989 199.769 657.268 199.489 656.734 198.928 656.201 198.368 655.935 197.582 655.935 196.57 655.935 195.523 656.204 194.71 656.743 194.132 657.282 193.554 657.981 193.265 658.841 193.265 659.673 193.265 660.353 193.548 660.88 194.115 661.407 194.681 661.671 195.478 661.671 196.505 661.671 196.568 661.669 196.662 661.665 196.787L657.024 196.787C657.063 197.47 657.257 197.994 657.604 198.357 657.952 198.72 658.386 198.902 658.905 198.902 659.292 198.902 659.622 198.8 659.896 198.597 660.169 198.394 660.386 198.07 660.546 197.625ZM657.083 195.919 660.558 195.919C660.511 195.396 660.378 195.003 660.159 194.742 659.823 194.335 659.388 194.132 658.853 194.132 658.368 194.132 657.961 194.294 657.631 194.619 657.301 194.943 657.118 195.376 657.083 195.919ZM662.864 197.771 663.907 197.607C663.966 198.025 664.129 198.345 664.396 198.568 664.664 198.791 665.038 198.902 665.519 198.902 666.003 198.902 666.362 198.803 666.597 198.606 666.831 198.409 666.948 198.177 666.948 197.912 666.948 197.673 666.845 197.486 666.638 197.349 666.493 197.255 666.134 197.136 665.56 196.992 664.786 196.796 664.25 196.627 663.951 196.485 663.652 196.342 663.426 196.145 663.271 195.893 663.117 195.641 663.04 195.363 663.04 195.058 663.04 194.781 663.104 194.524 663.23 194.288 663.357 194.051 663.53 193.855 663.749 193.699 663.913 193.578 664.137 193.475 664.42 193.391 664.703 193.307 665.007 193.265 665.331 193.265 665.819 193.265 666.248 193.335 666.617 193.476 666.986 193.617 667.259 193.807 667.435 194.047 667.61 194.288 667.731 194.609 667.798 195.011L666.767 195.152C666.72 194.832 666.584 194.582 666.359 194.402 666.135 194.222 665.817 194.132 665.407 194.132 664.923 194.132 664.577 194.212 664.37 194.373 664.163 194.533 664.06 194.72 664.06 194.935 664.06 195.072 664.103 195.195 664.188 195.304 664.274 195.417 664.409 195.511 664.593 195.585 664.698 195.625 665.009 195.714 665.524 195.855 666.271 196.054 666.791 196.217 667.086 196.344 667.381 196.471 667.612 196.656 667.78 196.898 667.948 197.14 668.032 197.441 668.032 197.8 668.032 198.152 667.93 198.483 667.725 198.793 667.52 199.104 667.224 199.344 666.837 199.514 666.45 199.684 666.013 199.769 665.524 199.769 664.716 199.769 664.1 199.601 663.676 199.265 663.252 198.929 662.981 198.431 662.864 197.771ZM671.589 198.685 671.741 199.617C671.444 199.679 671.179 199.71 670.944 199.71 670.562 199.71 670.265 199.65 670.054 199.529 669.843 199.408 669.694 199.249 669.608 199.051 669.522 198.854 669.479 198.439 669.479 197.806L669.479 194.226 668.706 194.226 668.706 193.406 669.479 193.406 669.479 191.865 670.528 191.232 670.528 193.406 671.589 193.406 671.589 194.226 670.528 194.226 670.528 197.865C670.528 198.166 670.547 198.359 670.584 198.445 670.621 198.531 670.682 198.599 670.766 198.65 670.85 198.701 670.97 198.726 671.126 198.726 671.243 198.726 671.397 198.712 671.589 198.685ZM678.55 196.617 679.687 196.904C679.448 197.837 679.02 198.549 678.4 199.04 677.781 199.53 677.024 199.775 676.13 199.775 675.204 199.775 674.451 199.586 673.871 199.209 673.291 198.833 672.85 198.287 672.547 197.572 672.244 196.857 672.093 196.089 672.093 195.269 672.093 194.375 672.264 193.594 672.605 192.928 672.947 192.262 673.434 191.756 674.064 191.411 674.695 191.065 675.39 190.892 676.147 190.892 677.007 190.892 677.729 191.111 678.315 191.548 678.901 191.986 679.31 192.601 679.54 193.394L678.421 193.658C678.222 193.033 677.933 192.578 677.554 192.292 677.175 192.007 676.698 191.865 676.124 191.865 675.464 191.865 674.912 192.023 674.469 192.339 674.025 192.656 673.714 193.081 673.534 193.614 673.354 194.147 673.265 194.697 673.265 195.263 673.265 195.994 673.371 196.631 673.584 197.176 673.797 197.721 674.128 198.128 674.577 198.398 675.026 198.667 675.513 198.802 676.036 198.802 676.673 198.802 677.212 198.619 677.653 198.251 678.095 197.884 678.394 197.339 678.55 196.617ZM680.894 196.517C680.894 195.365 681.214 194.511 681.854 193.957 682.39 193.496 683.042 193.265 683.812 193.265 684.667 193.265 685.366 193.545 685.909 194.106 686.452 194.667 686.724 195.441 686.724 196.429 686.724 197.23 686.604 197.86 686.363 198.319 686.123 198.778 685.773 199.134 685.314 199.388 684.855 199.642 684.354 199.769 683.812 199.769 682.94 199.769 682.236 199.49 681.699 198.931 681.162 198.373 680.894 197.568 680.894 196.517ZM681.978 196.517C681.978 197.314 682.151 197.911 682.499 198.307 682.847 198.704 683.284 198.902 683.812 198.902 684.335 198.902 684.771 198.703 685.118 198.304 685.466 197.906 685.64 197.298 685.64 196.482 685.64 195.712 685.465 195.129 685.115 194.733 684.766 194.336 684.331 194.138 683.812 194.138 683.284 194.138 682.847 194.335 682.499 194.73 682.151 195.125 681.978 195.72 681.978 196.517ZM688.286 199.628 688.286 193.406 689.229 193.406 689.229 194.279C689.425 193.974 689.685 193.729 690.009 193.543 690.333 193.358 690.702 193.265 691.116 193.265 691.577 193.265 691.955 193.361 692.25 193.552 692.545 193.744 692.753 194.011 692.874 194.355 693.366 193.628 694.007 193.265 694.796 193.265 695.413 193.265 695.888 193.436 696.22 193.778 696.552 194.12 696.718 194.646 696.718 195.357L696.718 199.628 695.669 199.628 695.669 195.708C695.669 195.287 695.635 194.983 695.566 194.797 695.498 194.612 695.374 194.462 695.194 194.349 695.015 194.236 694.804 194.179 694.562 194.179 694.124 194.179 693.761 194.325 693.472 194.616 693.183 194.907 693.038 195.373 693.038 196.013L693.038 199.628 691.983 199.628 691.983 195.585C691.983 195.117 691.897 194.765 691.726 194.531 691.554 194.296 691.272 194.179 690.882 194.179 690.585 194.179 690.311 194.257 690.059 194.414 689.807 194.57 689.624 194.798 689.511 195.099 689.397 195.4 689.341 195.833 689.341 196.4L689.341 199.628ZM698.286 202.013 698.286 193.406 699.247 193.406 699.247 194.214C699.474 193.898 699.729 193.661 700.015 193.502 700.3 193.344 700.646 193.265 701.052 193.265 701.583 193.265 702.052 193.402 702.458 193.675 702.864 193.949 703.171 194.334 703.378 194.833 703.585 195.331 703.688 195.876 703.688 196.47 703.688 197.107 703.574 197.68 703.346 198.19 703.117 198.7 702.785 199.09 702.35 199.362 701.914 199.633 701.456 199.769 700.976 199.769 700.624 199.769 700.309 199.695 700.029 199.546 699.75 199.398 699.521 199.21 699.341 198.984L699.341 202.013ZM699.241 196.552C699.241 197.353 699.403 197.945 699.728 198.328 700.052 198.71 700.444 198.902 700.905 198.902 701.374 198.902 701.775 198.704 702.109 198.307 702.443 197.911 702.61 197.296 702.61 196.464 702.61 195.671 702.447 195.078 702.121 194.683 701.795 194.289 701.405 194.091 700.952 194.091 700.503 194.091 700.105 194.301 699.76 194.721 699.414 195.141 699.241 195.751 699.241 196.552ZM704.263 199.628 704.263 191.039 705.317 191.039 705.317 199.628ZM711.546 197.625 712.636 197.759C712.464 198.396 712.146 198.89 711.681 199.242 711.216 199.593 710.622 199.769 709.899 199.769 708.989 199.769 708.268 199.489 707.734 198.928 707.201 198.368 706.935 197.582 706.935 196.57 706.935 195.523 707.204 194.71 707.743 194.132 708.282 193.554 708.981 193.265 709.841 193.265 710.673 193.265 711.353 193.548 711.88 194.115 712.407 194.681 712.671 195.478 712.671 196.505 712.671 196.568 712.669 196.662 712.665 196.787L708.024 196.787C708.063 197.47 708.257 197.994 708.604 198.357 708.952 198.72 709.386 198.902 709.905 198.902 710.292 198.902 710.622 198.8 710.896 198.597 711.169 198.394 711.386 198.07 711.546 197.625ZM708.083 195.919 711.558 195.919C711.511 195.396 711.378 195.003 711.159 194.742 710.823 194.335 710.388 194.132 709.853 194.132 709.368 194.132 708.961 194.294 708.631 194.619 708.301 194.943 708.118 195.376 708.083 195.919ZM716.589 198.685 716.741 199.617C716.444 199.679 716.179 199.71 715.944 199.71 715.562 199.71 715.265 199.65 715.054 199.529 714.843 199.408 714.694 199.249 714.608 199.051 714.522 198.854 714.479 198.439 714.479 197.806L714.479 194.226 713.706 194.226 713.706 193.406 714.479 193.406 714.479 191.865 715.528 191.232 715.528 193.406 716.589 193.406 716.589 194.226 715.528 194.226 715.528 197.865C715.528 198.166 715.547 198.359 715.584 198.445 715.621 198.531 715.682 198.599 715.766 198.65 715.85 198.701 715.97 198.726 716.126 198.726 716.243 198.726 716.397 198.712 716.589 198.685ZM721.546 197.625 722.636 197.759C722.464 198.396 722.146 198.89 721.681 199.242 721.216 199.593 720.622 199.769 719.899 199.769 718.989 199.769 718.268 199.489 717.734 198.928 717.201 198.368 716.935 197.582 716.935 196.57 716.935 195.523 717.204 194.71 717.743 194.132 718.282 193.554 718.981 193.265 719.841 193.265 720.673 193.265 721.353 193.548 721.88 194.115 722.407 194.681 722.671 195.478 722.671 196.505 722.671 196.568 722.669 196.662 722.665 196.787L718.024 196.787C718.063 197.47 718.257 197.994 718.604 198.357 718.952 198.72 719.386 198.902 719.905 198.902 720.292 198.902 720.622 198.8 720.896 198.597 721.169 198.394 721.386 198.07 721.546 197.625ZM718.083 195.919 721.558 195.919C721.511 195.396 721.378 195.003 721.159 194.742 720.823 194.335 720.388 194.132 719.853 194.132 719.368 194.132 718.961 194.294 718.631 194.619 718.301 194.943 718.118 195.376 718.083 195.919ZM728.323 199.628 728.323 198.843C727.929 199.46 727.349 199.769 726.583 199.769 726.087 199.769 725.631 199.632 725.215 199.359 724.799 199.085 724.477 198.704 724.248 198.213 724.02 197.723 723.905 197.16 723.905 196.523 723.905 195.902 724.009 195.338 724.216 194.833 724.423 194.327 724.733 193.939 725.147 193.669 725.562 193.4 726.024 193.265 726.536 193.265 726.911 193.265 727.245 193.344 727.538 193.502 727.831 193.661 728.069 193.867 728.253 194.121L728.253 191.039 729.302 191.039 729.302 199.628ZM724.989 196.523C724.989 197.32 725.157 197.916 725.493 198.31 725.829 198.705 726.226 198.902 726.683 198.902 727.144 198.902 727.535 198.713 727.857 198.336 728.18 197.959 728.341 197.384 728.341 196.611 728.341 195.759 728.177 195.134 727.849 194.736 727.521 194.337 727.116 194.138 726.636 194.138 726.167 194.138 725.775 194.33 725.461 194.712 725.146 195.095 724.989 195.699 724.989 196.523ZM730.444 199.628 730.444 191.039 736.655 191.039 736.655 192.052 731.581 192.052 731.581 194.683 736.333 194.683 736.333 195.691 731.581 195.691 731.581 198.615 736.854 198.615 736.854 199.628ZM740.015 199.628 737.647 193.406 738.761 193.406 740.097 197.132C740.241 197.535 740.374 197.953 740.495 198.386 740.589 198.058 740.72 197.664 740.888 197.203L742.271 193.406 743.354 193.406 740.999 199.628ZM748.546 197.625 749.636 197.759C749.464 198.396 749.146 198.89 748.681 199.242 748.216 199.593 747.622 199.769 746.899 199.769 745.989 199.769 745.268 199.489 744.734 198.928 744.201 198.368 743.935 197.582 743.935 196.57 743.935 195.523 744.204 194.71 744.743 194.132 745.282 193.554 745.981 193.265 746.841 193.265 747.673 193.265 748.353 193.548 748.88 194.115 749.407 194.681 749.671 195.478 749.671 196.505 749.671 196.568 749.669 196.662 749.665 196.787L745.024 196.787C745.063 197.47 745.257 197.994 745.604 198.357 745.952 198.72 746.386 198.902 746.905 198.902 747.292 198.902 747.622 198.8 747.896 198.597 748.169 198.394 748.386 198.07 748.546 197.625ZM745.083 195.919 748.558 195.919C748.511 195.396 748.378 195.003 748.159 194.742 747.823 194.335 747.388 194.132 746.853 194.132 746.368 194.132 745.961 194.294 745.631 194.619 745.301 194.943 745.118 195.376 745.083 195.919ZM751.286 199.628 751.286 193.406 752.235 193.406 752.235 194.291C752.692 193.607 753.353 193.265 754.216 193.265 754.591 193.265 754.936 193.333 755.25 193.467 755.564 193.602 755.8 193.779 755.956 193.998 756.112 194.216 756.222 194.476 756.284 194.777 756.323 194.972 756.343 195.314 756.343 195.802L756.343 199.628 755.288 199.628 755.288 195.843C755.288 195.414 755.247 195.092 755.165 194.879 755.083 194.667 754.938 194.497 754.729 194.37 754.52 194.243 754.274 194.179 753.993 194.179 753.544 194.179 753.156 194.322 752.83 194.607 752.504 194.892 752.341 195.433 752.341 196.23L752.341 199.628ZM760.589 198.685 760.741 199.617C760.444 199.679 760.179 199.71 759.944 199.71 759.562 199.71 759.265 199.65 759.054 199.529 758.843 199.408 758.694 199.249 758.608 199.051 758.522 198.854 758.479 198.439 758.479 197.806L758.479 194.226 757.706 194.226 757.706 193.406 758.479 193.406 758.479 191.865 759.528 191.232 759.528 193.406 760.589 193.406 760.589 194.226 759.528 194.226 759.528 197.865C759.528 198.166 759.547 198.359 759.584 198.445 759.621 198.531 759.682 198.599 759.766 198.65 759.85 198.701 759.97 198.726 760.126 198.726 760.243 198.726 760.397 198.712 760.589 198.685ZM763.606 199.628 763.606 192.052 760.776 192.052 760.776 191.039 767.585 191.039 767.585 192.052 764.743 192.052 764.743 199.628ZM768.239 202.025 768.122 201.035C768.353 201.097 768.554 201.128 768.726 201.128 768.96 201.128 769.147 201.089 769.288 201.011 769.429 200.933 769.544 200.824 769.634 200.683 769.7 200.578 769.808 200.316 769.956 199.898 769.976 199.839 770.007 199.753 770.05 199.64L767.688 193.406 768.825 193.406 770.12 197.009C770.288 197.466 770.438 197.947 770.571 198.451 770.692 197.966 770.837 197.494 771.005 197.033L772.335 193.406 773.39 193.406 771.022 199.734C770.769 200.417 770.571 200.888 770.431 201.146 770.243 201.494 770.028 201.749 769.786 201.911 769.544 202.073 769.255 202.154 768.919 202.154 768.716 202.154 768.489 202.111 768.239 202.025ZM774.286 202.013 774.286 193.406 775.247 193.406 775.247 194.214C775.474 193.898 775.729 193.661 776.015 193.502 776.3 193.344 776.646 193.265 777.052 193.265 777.583 193.265 778.052 193.402 778.458 193.675 778.864 193.949 779.171 194.334 779.378 194.833 779.585 195.331 779.688 195.876 779.688 196.47 779.688 197.107 779.574 197.68 779.346 198.19 779.117 198.7 778.785 199.09 778.35 199.362 777.914 199.633 777.456 199.769 776.976 199.769 776.624 199.769 776.309 199.695 776.029 199.546 775.75 199.398 775.521 199.21 775.341 198.984L775.341 202.013ZM775.241 196.552C775.241 197.353 775.403 197.945 775.728 198.328 776.052 198.71 776.444 198.902 776.905 198.902 777.374 198.902 777.775 198.704 778.109 198.307 778.443 197.911 778.61 197.296 778.61 196.464 778.61 195.671 778.447 195.078 778.121 194.683 777.795 194.289 777.405 194.091 776.952 194.091 776.503 194.091 776.105 194.301 775.76 194.721 775.414 195.141 775.241 195.751 775.241 196.552ZM785.546 197.625 786.636 197.759C786.464 198.396 786.146 198.89 785.681 199.242 785.216 199.593 784.622 199.769 783.899 199.769 782.989 199.769 782.268 199.489 781.734 198.928 781.201 198.368 780.935 197.582 780.935 196.57 780.935 195.523 781.204 194.71 781.743 194.132 782.282 193.554 782.981 193.265 783.841 193.265 784.673 193.265 785.353 193.548 785.88 194.115 786.407 194.681 786.671 195.478 786.671 196.505 786.671 196.568 786.669 196.662 786.665 196.787L782.024 196.787C782.063 197.47 782.257 197.994 782.604 198.357 782.952 198.72 783.386 198.902 783.905 198.902 784.292 198.902 784.622 198.8 784.896 198.597 785.169 198.394 785.386 198.07 785.546 197.625ZM782.083 195.919 785.558 195.919C785.511 195.396 785.378 195.003 785.159 194.742 784.823 194.335 784.388 194.132 783.853 194.132 783.368 194.132 782.961 194.294 782.631 194.619 782.301 194.943 782.118 195.376 782.083 195.919Z" fill="#BFBFBF"/></g><rect x="566.5" y="164.5" width="230" height="56" stroke="#444444" stroke-width="1.33333" stroke-linejoin="round" stroke-miterlimit="10" fill="#EEF3FA"/><text fill="#111111" font-family="Arial,Arial_MSFontService,sans-serif" font-weight="400" font-size="12" transform="translate(577.667 197)">DeferredRequestCompletedEventType</text><g clip-path="url(#clip18)"><g clip-path="url(#clip19)" filter="url(#fx0)" transform="translate(20 274)"><g><rect x="6.50005" y="6.91476" width="230" height="56" stroke="#444444" stroke-linejoin="round" stroke-miterlimit="10" fill="#EEF3FA"/></g></g><g clip-path="url(#clip20)" filter="url(#fx1)" transform="translate(87 292)"><g><path d="M0.943359 0 0.943359-8.58984 4.75195-8.58984C5.51758-8.58984 6.09961-8.5127 6.49805-8.3584 6.89648-8.2041 7.21484-7.93164 7.45312-7.54102 7.69141-7.15039 7.81055-6.71875 7.81055-6.24609 7.81055-5.63672 7.61328-5.12305 7.21875-4.70508 6.82422-4.28711 6.21484-4.02148 5.39062-3.9082 5.69141-3.76367 5.91992-3.62109 6.07617-3.48047 6.4082-3.17578 6.72266-2.79492 7.01953-2.33789L8.51367 0 7.08398 0 5.94727-1.78711C5.61523-2.30273 5.3418-2.69727 5.12695-2.9707 4.91211-3.24414 4.71973-3.43555 4.5498-3.54492 4.37988-3.6543 4.20703-3.73047 4.03125-3.77344 3.90234-3.80078 3.69141-3.81445 3.39844-3.81445L2.08008-3.81445 2.08008 0ZM2.08008-4.79883 4.52344-4.79883C5.04297-4.79883 5.44922-4.85254 5.74219-4.95996 6.03516-5.06738 6.25781-5.23926 6.41016-5.47559 6.5625-5.71191 6.63867-5.96875 6.63867-6.24609 6.63867-6.65234 6.49121-6.98633 6.19629-7.24805 5.90137-7.50977 5.43555-7.64062 4.79883-7.64062L2.08008-7.64062ZM13.7174-2.00391 14.8073-1.86914C14.6354-1.23242 14.3171-0.738281 13.8522-0.386719 13.3874-0.0351563 12.7936 0.140625 12.071 0.140625 11.1608 0.140625 10.4391-0.139648 9.90592-0.700195 9.37272-1.26074 9.10612-2.04688 9.10612-3.05859 9.10612-4.10547 9.37565-4.91797 9.91471-5.49609 10.4538-6.07422 11.153-6.36328 12.0124-6.36328 12.8444-6.36328 13.5241-6.08008 14.0514-5.51367 14.5788-4.94727 14.8424-4.15039 14.8424-3.12305 14.8424-3.06055 14.8405-2.9668 14.8366-2.8418L10.196-2.8418C10.235-2.1582 10.4284-1.63477 10.776-1.27148 11.1237-0.908203 11.5573-0.726562 12.0768-0.726562 12.4635-0.726562 12.7936-0.828125 13.0671-1.03125 13.3405-1.23438 13.5573-1.55859 13.7174-2.00391ZM10.2546-3.70898 13.7292-3.70898C13.6823-4.23242 13.5495-4.625 13.3307-4.88672 12.9948-5.29297 12.5592-5.49609 12.0241-5.49609 11.5397-5.49609 11.1325-5.33398 10.8024-5.00977 10.4723-4.68555 10.2897-4.25195 10.2546-3.70898ZM20.0911 2.38477 20.0911-0.662109C19.9271-0.431641 19.6976-0.240234 19.4027-0.0878906 19.1077 0.0644531 18.7943 0.140625 18.4622 0.140625 17.724 0.140625 17.0882-0.154297 16.555-0.744141 16.0218-1.33398 15.7552-2.14258 15.7552-3.16992 15.7552-3.79492 15.8636-4.35547 16.0804-4.85156 16.2972-5.34766 16.6117-5.72363 17.0238-5.97949 17.4359-6.23535 17.888-6.36328 18.3802-6.36328 19.1497-6.36328 19.7552-6.03906 20.1966-5.39062L20.1966-6.22266 21.1458-6.22266 21.1458 2.38477ZM16.8392-3.12891C16.8392-2.32812 17.0072-1.72754 17.3431-1.32715 17.679-0.926758 18.0814-0.726562 18.5501-0.726562 18.9993-0.726562 19.3861-0.916992 19.7103-1.29785 20.0345-1.67871 20.1966-2.25781 20.1966-3.03516 20.1966-3.86328 20.0257-4.48633 19.6839-4.9043 19.3421-5.32227 18.9408-5.53125 18.4798-5.53125 18.0228-5.53125 17.6351-5.33691 17.3167-4.94824 16.9984-4.55957 16.8392-3.95312 16.8392-3.12891ZM26.8691 0 26.8691-0.914062C26.3848-0.210938 25.7266 0.140625 24.8945 0.140625 24.5273 0.140625 24.1846 0.0703125 23.8662-0.0703125 23.5479-0.210937 23.3115-0.387695 23.1572-0.600586 23.0029-0.813477 22.8945-1.07422 22.832-1.38281 22.7891-1.58984 22.7676-1.91797 22.7676-2.36719L22.7676-6.22266 23.8223-6.22266 23.8223-2.77148C23.8223-2.2207 23.8438-1.84961 23.8867-1.6582 23.9531-1.38086 24.0938-1.16309 24.3086-1.00488 24.5234-0.84668 24.7891-0.767578 25.1055-0.767578 25.4219-0.767578 25.7188-0.848633 25.9961-1.01074 26.2734-1.17285 26.4697-1.39355 26.585-1.67285 26.7002-1.95215 26.7578-2.35742 26.7578-2.88867L26.7578-6.22266 27.8125-6.22266 27.8125 0ZM33.7174-2.00391 34.8073-1.86914C34.6354-1.23242 34.3171-0.738281 33.8522-0.386719 33.3874-0.0351563 32.7936 0.140625 32.071 0.140625 31.1608 0.140625 30.4391-0.139648 29.9059-0.700195 29.3727-1.26074 29.1061-2.04688 29.1061-3.05859 29.1061-4.10547 29.3757-4.91797 29.9147-5.49609 30.4538-6.07422 31.153-6.36328 32.0124-6.36328 32.8444-6.36328 33.5241-6.08008 34.0514-5.51367 34.5788-4.94727 34.8424-4.15039 34.8424-3.12305 34.8424-3.06055 34.8405-2.9668 34.8366-2.8418L30.196-2.8418C30.235-2.1582 30.4284-1.63477 30.776-1.27148 31.1237-0.908203 31.5573-0.726562 32.0768-0.726562 32.4635-0.726562 32.7936-0.828125 33.0671-1.03125 33.3405-1.23438 33.5573-1.55859 33.7174-2.00391ZM30.2546-3.70898 33.7292-3.70898C33.6823-4.23242 33.5495-4.625 33.3307-4.88672 32.9948-5.29297 32.5592-5.49609 32.0241-5.49609 31.5397-5.49609 31.1325-5.33398 30.8024-5.00977 30.4723-4.68555 30.2897-4.25195 30.2546-3.70898ZM35.7025-1.85742 36.7454-2.02148C36.804-1.60352 36.9671-1.2832 37.2347-1.06055 37.5023-0.837891 37.8763-0.726562 38.3568-0.726562 38.8411-0.726562 39.2005-0.825195 39.4349-1.02246 39.6693-1.21973 39.7865-1.45117 39.7865-1.7168 39.7865-1.95508 39.6829-2.14258 39.4759-2.2793 39.3314-2.37305 38.972-2.49219 38.3978-2.63672 37.6244-2.83203 37.0882-3.00098 36.7894-3.14355 36.4906-3.28613 36.264-3.4834 36.1097-3.73535 35.9554-3.9873 35.8783-4.26562 35.8783-4.57031 35.8783-4.84766 35.9417-5.10449 36.0687-5.34082 36.1956-5.57715 36.3685-5.77344 36.5872-5.92969 36.7513-6.05078 36.9749-6.15332 37.2581-6.2373 37.5413-6.32129 37.8451-6.36328 38.1693-6.36328 38.6576-6.36328 39.0863-6.29297 39.4554-6.15234 39.8245-6.01172 40.097-5.82129 40.2728-5.58105 40.4486-5.34082 40.5697-5.01953 40.6361-4.61719L39.6048-4.47656C39.5579-4.79688 39.4222-5.04688 39.1976-5.22656 38.973-5.40625 38.6556-5.49609 38.2454-5.49609 37.7611-5.49609 37.4154-5.41602 37.2083-5.25586 37.0013-5.0957 36.8978-4.9082 36.8978-4.69336 36.8978-4.55664 36.9408-4.43359 37.0267-4.32422 37.1126-4.21094 37.2474-4.11719 37.431-4.04297 37.5365-4.00391 37.847-3.91406 38.3626-3.77344 39.1087-3.57422 39.6292-3.41113 39.9242-3.28418 40.2191-3.15723 40.4505-2.97266 40.6185-2.73047 40.7865-2.48828 40.8704-2.1875 40.8704-1.82812 40.8704-1.47656 40.7679-1.14551 40.5628-0.834961 40.3577-0.524414 40.0619-0.28418 39.6751-0.114258 39.2884 0.0556641 38.8509 0.140625 38.3626 0.140625 37.554 0.140625 36.9378-0.0273438 36.514-0.363281 36.0902-0.699219 35.8197-1.19727 35.7025-1.85742ZM44.4271-0.943359 44.5794-0.0117188C44.2826 0.0507812 44.0169 0.0820312 43.7826 0.0820312 43.3997 0.0820312 43.1029 0.0214844 42.8919-0.0996094 42.681-0.220703 42.5326-0.379883 42.4466-0.577148 42.3607-0.774414 42.3177-1.18945 42.3177-1.82227L42.3177-5.40234 41.5443-5.40234 41.5443-6.22266 42.3177-6.22266 42.3177-7.76367 43.3665-8.39648 43.3665-6.22266 44.4271-6.22266 44.4271-5.40234 43.3665-5.40234 43.3665-1.76367C43.3665-1.46289 43.3851-1.26953 43.4222-1.18359 43.4593-1.09766 43.5199-1.0293 43.6038-0.978516 43.6878-0.927734 43.8079-0.902344 43.9642-0.902344 44.0814-0.902344 44.2357-0.916016 44.4271-0.943359ZM45.6276 0 45.6276-8.58984 46.7643-8.58984 46.7643-5.0625 51.2292-5.0625 51.2292-8.58984 52.3659-8.58984 52.3659 0 51.2292 0 51.2292-4.04883 46.7643-4.04883 46.7643 0ZM58.1849-0.767578C57.7943-0.435547 57.4183-0.201172 57.057-0.0644531 56.6956 0.0722656 56.3079 0.140625 55.8939 0.140625 55.2103 0.140625 54.6849-0.0263672 54.3177-0.360352 53.9505-0.694336 53.7669-1.12109 53.7669-1.64062 53.7669-1.94531 53.8363-2.22363 53.9749-2.47559 54.1136-2.72754 54.2952-2.92969 54.5199-3.08203 54.7445-3.23437 54.9974-3.34961 55.2786-3.42773 55.4857-3.48242 55.7982-3.53516 56.2161-3.58594 57.0677-3.6875 57.6947-3.80859 58.097-3.94922 58.1009-4.09375 58.1029-4.18555 58.1029-4.22461 58.1029-4.6543 58.0033-4.95703 57.804-5.13281 57.5345-5.37109 57.1341-5.49023 56.6029-5.49023 56.1068-5.49023 55.7406-5.40332 55.5042-5.22949 55.2679-5.05566 55.0931-4.74805 54.9798-4.30664L53.9486-4.44727C54.0423-4.88867 54.1966-5.24512 54.4115-5.5166 54.6263-5.78809 54.9368-5.99707 55.3431-6.14355 55.7493-6.29004 56.2201-6.36328 56.7552-6.36328 57.2865-6.36328 57.7181-6.30078 58.0501-6.17578 58.3822-6.05078 58.6263-5.89355 58.7826-5.7041 58.9388-5.51465 59.0482-5.27539 59.1107-4.98633 59.1458-4.80664 59.1634-4.48242 59.1634-4.01367L59.1634-2.60742C59.1634-1.62695 59.1859-1.00684 59.2308-0.74707 59.2757-0.487305 59.3646-0.238281 59.4974 0L58.3958 0C58.2865-0.21875 58.2161-0.474609 58.1849-0.767578ZM58.097-3.12305C57.7142-2.9668 57.14-2.83398 56.3744-2.72461 55.9408-2.66211 55.6341-2.5918 55.4544-2.51367 55.2747-2.43555 55.1361-2.32129 55.0384-2.1709 54.9408-2.02051 54.8919-1.85352 54.8919-1.66992 54.8919-1.38867 54.9984-1.1543 55.2113-0.966797 55.4242-0.779297 55.7357-0.685547 56.1458-0.685547 56.5521-0.685547 56.9134-0.774414 57.2298-0.952148 57.5462-1.12988 57.7786-1.37305 57.9271-1.68164 58.0404-1.91992 58.097-2.27148 58.097-2.73633ZM60.791 0 60.791-6.22266 61.7402-6.22266 61.7402-5.33789C62.1973-6.02148 62.8574-6.36328 63.7207-6.36328 64.0957-6.36328 64.4404-6.2959 64.7549-6.16113 65.0693-6.02637 65.3047-5.84961 65.4609-5.63086 65.6172-5.41211 65.7266-5.15234 65.7891-4.85156 65.8281-4.65625 65.8477-4.31445 65.8477-3.82617L65.8477 0 64.793 0 64.793-3.78516C64.793-4.21484 64.752-4.53613 64.6699-4.74902 64.5879-4.96191 64.4424-5.13184 64.2334-5.25879 64.0244-5.38574 63.7793-5.44922 63.4981-5.44922 63.0488-5.44922 62.6611-5.30664 62.335-5.02148 62.0088-4.73633 61.8457-4.19531 61.8457-3.39844L61.8457 0ZM71.4948 0 71.4948-0.785156C71.1003-0.167969 70.5202 0.140625 69.7546 0.140625 69.2585 0.140625 68.8024 0.00390624 68.3864-0.269531 67.9704-0.542969 67.6481-0.924805 67.4196-1.41504 67.1911-1.90527 67.0768-2.46875 67.0768-3.10547 67.0768-3.72656 67.1803-4.29004 67.3874-4.7959 67.5944-5.30176 67.905-5.68945 68.319-5.95898 68.7331-6.22852 69.196-6.36328 69.7077-6.36328 70.0827-6.36328 70.4167-6.28418 70.7096-6.12598 71.0026-5.96777 71.2409-5.76172 71.4245-5.50781L71.4245-8.58984 72.4733-8.58984 72.4733 0ZM68.1608-3.10547C68.1608-2.30859 68.3288-1.71289 68.6647-1.31836 69.0007-0.923828 69.3971-0.726562 69.8542-0.726562 70.3151-0.726562 70.7067-0.915039 71.029-1.29199 71.3512-1.66895 71.5124-2.24414 71.5124-3.01758 71.5124-3.86914 71.3483-4.49414 71.0202-4.89258 70.6921-5.29102 70.2878-5.49023 69.8073-5.49023 69.3385-5.49023 68.9469-5.29883 68.6325-4.91602 68.318-4.5332 68.1608-3.92969 68.1608-3.10547ZM74.1009 0 74.1009-8.58984 75.1556-8.58984 75.1556 0ZM81.0508-2.00391 82.1406-1.86914C81.9688-1.23242 81.6504-0.738281 81.1855-0.386719 80.7207-0.0351563 80.127 0.140625 79.4043 0.140625 78.4941 0.140625 77.7725-0.139648 77.2393-0.700195 76.7061-1.26074 76.4395-2.04688 76.4395-3.05859 76.4395-4.10547 76.709-4.91797 77.248-5.49609 77.7871-6.07422 78.4863-6.36328 79.3457-6.36328 80.1777-6.36328 80.8574-6.08008 81.3848-5.51367 81.9121-4.94727 82.1758-4.15039 82.1758-3.12305 82.1758-3.06055 82.1738-2.9668 82.1699-2.8418L77.5293-2.8418C77.5684-2.1582 77.7617-1.63477 78.1094-1.27148 78.457-0.908203 78.8906-0.726562 79.4102-0.726562 79.7969-0.726562 80.127-0.828125 80.4004-1.03125 80.6738-1.23438 80.8906-1.55859 81.0508-2.00391ZM77.5879-3.70898 81.0625-3.70898C81.0156-4.23242 80.8828-4.625 80.6641-4.88672 80.3281-5.29297 79.8926-5.49609 79.3574-5.49609 78.873-5.49609 78.4658-5.33398 78.1357-5.00977 77.8057-4.68555 77.623-4.25195 77.5879-3.70898Z" fill="#111111" transform="translate(12.6667 21)"/></g></g></g><rect x="26.5001" y="278.5" width="230" height="56" stroke="#444444" stroke-width="1.33333" stroke-linejoin="round" stroke-miterlimit="10" fill="#EEF3FA"/><text fill="#111111" font-family="Arial,Arial_MSFontService,sans-serif" font-weight="400" font-size="12" transform="translate(99.6667 311)">RequestHandle</text><g clip-path="url(#clip21)"><g clip-path="url(#clip22)" filter="url(#fx2)" transform="translate(290 274)"><g><rect x="6.50006" y="6.91476" width="230" height="56" stroke="#444444" stroke-linejoin="round" stroke-miterlimit="10" fill="#EEF3FA"/></g></g><g clip-path="url(#clip23)" filter="url(#fx3)" transform="translate(373 292)"><g><path d="M0.539062-2.75977 1.61133-2.85352C1.66211-2.42383 1.78027-2.07129 1.96582-1.7959 2.15137-1.52051 2.43945-1.29785 2.83008-1.12793 3.2207-0.958008 3.66016-0.873047 4.14844-0.873047 4.58203-0.873047 4.96484-0.9375 5.29688-1.06641 5.62891-1.19531 5.87598-1.37207 6.03809-1.59668 6.20019-1.82129 6.28125-2.06641 6.28125-2.33203 6.28125-2.60156 6.20312-2.83691 6.04688-3.03809 5.89062-3.23926 5.63281-3.4082 5.27344-3.54492 5.04297-3.63477 4.5332-3.77441 3.74414-3.96387 2.95508-4.15332 2.40234-4.33203 2.08594-4.5 1.67578-4.71484 1.37012-4.98145 1.16895-5.2998 0.967773-5.61816 0.867187-5.97461 0.867188-6.36914 0.867187-6.80273 0.990234-7.20801 1.23633-7.58496 1.48242-7.96191 1.8418-8.24805 2.31445-8.44336 2.78711-8.63867 3.3125-8.73633 3.89062-8.73633 4.52734-8.73633 5.08887-8.63379 5.5752-8.42871 6.06152-8.22363 6.43555-7.92187 6.69727-7.52344 6.95898-7.125 7.09961-6.67383 7.11914-6.16992L6.0293-6.08789C5.9707-6.63086 5.77246-7.04102 5.43457-7.31836 5.09668-7.5957 4.59766-7.73437 3.9375-7.73438 3.25-7.73437 2.74902-7.6084 2.43457-7.35645 2.12012-7.10449 1.96289-6.80078 1.96289-6.44531 1.96289-6.13672 2.07422-5.88281 2.29688-5.68359 2.51562-5.48438 3.08691-5.28027 4.01074-5.07129 4.93457-4.8623 5.56836-4.67969 5.91211-4.52344 6.41211-4.29297 6.78125-4.00098 7.01953-3.64746 7.25781-3.29395 7.37695-2.88672 7.37695-2.42578 7.37695-1.96875 7.24609-1.53809 6.98438-1.13379 6.72266-0.729492 6.34668-0.415039 5.85645-0.19043 5.36621 0.0341797 4.81445 0.146484 4.20117 0.146484 3.42383 0.146484 2.77246 0.0332031 2.24707-0.193359 1.72168-0.419922 1.30957-0.760742 1.01074-1.21582 0.711914-1.6709 0.554688-2.18555 0.539062-2.75977ZM13.0508-2.00391 14.1406-1.86914C13.9688-1.23242 13.6504-0.738281 13.1855-0.386719 12.7207-0.0351563 12.127 0.140625 11.4043 0.140625 10.4941 0.140625 9.77246-0.139648 9.23926-0.700195 8.70605-1.26074 8.43945-2.04688 8.43945-3.05859 8.43945-4.10547 8.70898-4.91797 9.24805-5.49609 9.78711-6.07422 10.4863-6.36328 11.3457-6.36328 12.1777-6.36328 12.8574-6.08008 13.3848-5.51367 13.9121-4.94727 14.1758-4.15039 14.1758-3.12305 14.1758-3.06055 14.1738-2.9668 14.1699-2.8418L9.5293-2.8418C9.56836-2.1582 9.76172-1.63477 10.1094-1.27148 10.457-0.908203 10.8906-0.726562 11.4102-0.726562 11.7969-0.726562 12.127-0.828125 12.4004-1.03125 12.6738-1.23438 12.8906-1.55859 13.0508-2.00391ZM9.58789-3.70898 13.0625-3.70898C13.0156-4.23242 12.8828-4.625 12.6641-4.88672 12.3281-5.29297 11.8926-5.49609 11.3574-5.49609 10.873-5.49609 10.4658-5.33398 10.1357-5.00977 9.80566-4.68555 9.62305-4.25195 9.58789-3.70898ZM15.446 0 15.446-6.22266 16.3952-6.22266 16.3952-5.2793C16.6374-5.7207 16.861-6.01172 17.0661-6.15234 17.2712-6.29297 17.4967-6.36328 17.7428-6.36328 18.0983-6.36328 18.4596-6.25 18.8268-6.02344L18.4635-5.04492C18.2057-5.19727 17.9479-5.27344 17.6901-5.27344 17.4596-5.27344 17.2526-5.2041 17.069-5.06543 16.8854-4.92676 16.7546-4.73438 16.6764-4.48828 16.5592-4.11328 16.5007-3.70312 16.5007-3.25781L16.5007 0ZM21.1862 0 18.819-6.22266 19.9323-6.22266 21.2682-2.49609C21.4128-2.09375 21.5456-1.67578 21.6667-1.24219 21.7604-1.57031 21.8913-1.96484 22.0592-2.42578L23.4421-6.22266 24.526-6.22266 22.1706 0ZM25.4635-7.37695 25.4635-8.58984 26.5182-8.58984 26.5182-7.37695ZM25.4635 0 25.4635-6.22266 26.5182-6.22266 26.5182 0ZM32.1849-2.2793 33.222-2.14453C33.1087-1.42969 32.8187-0.870117 32.3519-0.46582 31.8851-0.0615234 31.3118 0.140625 30.6322 0.140625 29.7806 0.140625 29.096-0.137695 28.5785-0.694336 28.0609-1.25098 27.8021-2.04883 27.8021-3.08789 27.8021-3.75977 27.9134-4.34766 28.1361-4.85156 28.3587-5.35547 28.6976-5.7334 29.1527-5.98535 29.6077-6.2373 30.1029-6.36328 30.638-6.36328 31.3138-6.36328 31.8665-6.19238 32.2962-5.85059 32.7259-5.50879 33.0013-5.02344 33.1224-4.39453L32.097-4.23633C31.9993-4.6543 31.8265-4.96875 31.5785-5.17969 31.3304-5.39062 31.0306-5.49609 30.679-5.49609 30.1478-5.49609 29.7161-5.30566 29.3841-4.9248 29.0521-4.54395 28.8861-3.94141 28.8861-3.11719 28.8861-2.28125 29.0462-1.67383 29.3665-1.29492 29.6868-0.916016 30.1048-0.726562 30.6204-0.726562 31.0345-0.726562 31.3802-0.853516 31.6576-1.10742 31.9349-1.36133 32.1107-1.75195 32.1849-2.2793ZM38.3841-2.00391 39.474-1.86914C39.3021-1.23242 38.9837-0.738281 38.5189-0.386719 38.054-0.0351563 37.4603 0.140625 36.7376 0.140625 35.8275 0.140625 35.1058-0.139648 34.5726-0.700195 34.0394-1.26074 33.7728-2.04688 33.7728-3.05859 33.7728-4.10547 34.0423-4.91797 34.5814-5.49609 35.1204-6.07422 35.8197-6.36328 36.679-6.36328 37.5111-6.36328 38.1908-6.08008 38.7181-5.51367 39.2454-4.94727 39.5091-4.15039 39.5091-3.12305 39.5091-3.06055 39.5072-2.9668 39.5033-2.8418L34.8626-2.8418C34.9017-2.1582 35.0951-1.63477 35.4427-1.27148 35.7904-0.908203 36.224-0.726562 36.7435-0.726562 37.1302-0.726562 37.4603-0.828125 37.7337-1.03125 38.0072-1.23438 38.224-1.55859 38.3841-2.00391ZM34.9212-3.70898 38.3958-3.70898C38.349-4.23242 38.2161-4.625 37.9974-4.88672 37.6615-5.29297 37.2259-5.49609 36.6908-5.49609 36.2064-5.49609 35.7992-5.33398 35.4691-5.00977 35.139-4.68555 34.9564-4.25195 34.9212-3.70898ZM41.1191 0 41.1191-8.58984 42.2559-8.58984 42.2559 0ZM48.1615 0 48.1615-0.785156C47.7669-0.167969 47.1869 0.140625 46.4212 0.140625 45.9251 0.140625 45.4691 0.00390624 45.0531-0.269531 44.637-0.542969 44.3148-0.924805 44.0863-1.41504 43.8577-1.90527 43.7435-2.46875 43.7435-3.10547 43.7435-3.72656 43.847-4.29004 44.054-4.7959 44.2611-5.30176 44.5716-5.68945 44.9857-5.95898 45.3997-6.22852 45.8626-6.36328 46.3744-6.36328 46.7494-6.36328 47.0833-6.28418 47.3763-6.12598 47.6693-5.96777 47.9076-5.76172 48.0911-5.50781L48.0911-8.58984 49.14-8.58984 49.14 0ZM44.8275-3.10547C44.8275-2.30859 44.9954-1.71289 45.3314-1.31836 45.6673-0.923828 46.0638-0.726562 46.5208-0.726562 46.9818-0.726562 47.3734-0.915039 47.6956-1.29199 48.0179-1.66895 48.179-2.24414 48.179-3.01758 48.179-3.86914 48.015-4.49414 47.6869-4.89258 47.3587-5.29102 46.9544-5.49023 46.474-5.49023 46.0052-5.49023 45.6136-5.29883 45.2992-4.91602 44.9847-4.5332 44.8275-3.92969 44.8275-3.10547Z" fill="#111111" transform="translate(13 21)"/></g></g></g><rect x="296.5" y="278.5" width="230" height="56" stroke="#444444" stroke-width="1.33333" stroke-linejoin="round" stroke-miterlimit="10" fill="#EEF3FA"/><text fill="#111111" font-family="Arial,Arial_MSFontService,sans-serif" font-weight="400" font-size="12" transform="translate(386 311)">ServiceId</text><g clip-path="url(#clip24)"><g clip-path="url(#clip25)" filter="url(#fx4)" transform="translate(560 274)"><g><rect x="6.50006" y="6.91476" width="230" height="56" stroke="#444444" stroke-linejoin="round" stroke-miterlimit="10" fill="#EEF3FA"/></g></g><g clip-path="url(#clip26)" filter="url(#fx5)" transform="translate(631 292)"><g><path d="M0.539062-2.75977 1.61133-2.85352C1.66211-2.42383 1.78027-2.07129 1.96582-1.7959 2.15137-1.52051 2.43945-1.29785 2.83008-1.12793 3.2207-0.958008 3.66016-0.873047 4.14844-0.873047 4.58203-0.873047 4.96484-0.9375 5.29688-1.06641 5.62891-1.19531 5.87598-1.37207 6.03809-1.59668 6.20019-1.82129 6.28125-2.06641 6.28125-2.33203 6.28125-2.60156 6.20312-2.83691 6.04688-3.03809 5.89062-3.23926 5.63281-3.4082 5.27344-3.54492 5.04297-3.63477 4.5332-3.77441 3.74414-3.96387 2.95508-4.15332 2.40234-4.33203 2.08594-4.5 1.67578-4.71484 1.37012-4.98145 1.16895-5.2998 0.967773-5.61816 0.867187-5.97461 0.867188-6.36914 0.867187-6.80273 0.990234-7.20801 1.23633-7.58496 1.48242-7.96191 1.8418-8.24805 2.31445-8.44336 2.78711-8.63867 3.3125-8.73633 3.89062-8.73633 4.52734-8.73633 5.08887-8.63379 5.5752-8.42871 6.06152-8.22363 6.43555-7.92187 6.69727-7.52344 6.95898-7.125 7.09961-6.67383 7.11914-6.16992L6.0293-6.08789C5.9707-6.63086 5.77246-7.04102 5.43457-7.31836 5.09668-7.5957 4.59766-7.73437 3.9375-7.73438 3.25-7.73437 2.74902-7.6084 2.43457-7.35645 2.12012-7.10449 1.96289-6.80078 1.96289-6.44531 1.96289-6.13672 2.07422-5.88281 2.29688-5.68359 2.51562-5.48438 3.08691-5.28027 4.01074-5.07129 4.93457-4.8623 5.56836-4.67969 5.91211-4.52344 6.41211-4.29297 6.78125-4.00098 7.01953-3.64746 7.25781-3.29395 7.37695-2.88672 7.37695-2.42578 7.37695-1.96875 7.24609-1.53809 6.98438-1.13379 6.72266-0.729492 6.34668-0.415039 5.85645-0.19043 5.36621 0.0341797 4.81445 0.146484 4.20117 0.146484 3.42383 0.146484 2.77246 0.0332031 2.24707-0.193359 1.72168-0.419922 1.30957-0.760742 1.01074-1.21582 0.711914-1.6709 0.554688-2.18555 0.539062-2.75977ZM13.0508-2.00391 14.1406-1.86914C13.9688-1.23242 13.6504-0.738281 13.1855-0.386719 12.7207-0.0351563 12.127 0.140625 11.4043 0.140625 10.4941 0.140625 9.77246-0.139648 9.23926-0.700195 8.70605-1.26074 8.43945-2.04688 8.43945-3.05859 8.43945-4.10547 8.70898-4.91797 9.24805-5.49609 9.78711-6.07422 10.4863-6.36328 11.3457-6.36328 12.1777-6.36328 12.8574-6.08008 13.3848-5.51367 13.9121-4.94727 14.1758-4.15039 14.1758-3.12305 14.1758-3.06055 14.1738-2.9668 14.1699-2.8418L9.5293-2.8418C9.56836-2.1582 9.76172-1.63477 10.1094-1.27148 10.457-0.908203 10.8906-0.726562 11.4102-0.726562 11.7969-0.726562 12.127-0.828125 12.4004-1.03125 12.6738-1.23438 12.8906-1.55859 13.0508-2.00391ZM9.58789-3.70898 13.0625-3.70898C13.0156-4.23242 12.8828-4.625 12.6641-4.88672 12.3281-5.29297 11.8926-5.49609 11.3574-5.49609 10.873-5.49609 10.4658-5.33398 10.1357-5.00977 9.80566-4.68555 9.62305-4.25195 9.58789-3.70898ZM15.446 0 15.446-6.22266 16.3952-6.22266 16.3952-5.2793C16.6374-5.7207 16.861-6.01172 17.0661-6.15234 17.2712-6.29297 17.4967-6.36328 17.7428-6.36328 18.0983-6.36328 18.4596-6.25 18.8268-6.02344L18.4635-5.04492C18.2057-5.19727 17.9479-5.27344 17.6901-5.27344 17.4596-5.27344 17.2526-5.2041 17.069-5.06543 16.8854-4.92676 16.7546-4.73438 16.6764-4.48828 16.5592-4.11328 16.5007-3.70312 16.5007-3.25781L16.5007 0ZM21.1862 0 18.819-6.22266 19.9323-6.22266 21.2682-2.49609C21.4128-2.09375 21.5456-1.67578 21.6667-1.24219 21.7604-1.57031 21.8913-1.96484 22.0592-2.42578L23.4421-6.22266 24.526-6.22266 22.1706 0ZM25.4635-7.37695 25.4635-8.58984 26.5182-8.58984 26.5182-7.37695ZM25.4635 0 25.4635-6.22266 26.5182-6.22266 26.5182 0ZM32.1849-2.2793 33.222-2.14453C33.1087-1.42969 32.8187-0.870117 32.3519-0.46582 31.8851-0.0615234 31.3118 0.140625 30.6322 0.140625 29.7806 0.140625 29.096-0.137695 28.5785-0.694336 28.0609-1.25098 27.8021-2.04883 27.8021-3.08789 27.8021-3.75977 27.9134-4.34766 28.1361-4.85156 28.3587-5.35547 28.6976-5.7334 29.1527-5.98535 29.6077-6.2373 30.1029-6.36328 30.638-6.36328 31.3138-6.36328 31.8665-6.19238 32.2962-5.85059 32.7259-5.50879 33.0013-5.02344 33.1224-4.39453L32.097-4.23633C31.9993-4.6543 31.8265-4.96875 31.5785-5.17969 31.3304-5.39062 31.0306-5.49609 30.679-5.49609 30.1478-5.49609 29.7161-5.30566 29.3841-4.9248 29.0521-4.54395 28.8861-3.94141 28.8861-3.11719 28.8861-2.28125 29.0462-1.67383 29.3665-1.29492 29.6868-0.916016 30.1048-0.726562 30.6204-0.726562 31.0345-0.726562 31.3802-0.853516 31.6576-1.10742 31.9349-1.36133 32.1107-1.75195 32.1849-2.2793ZM38.3841-2.00391 39.474-1.86914C39.3021-1.23242 38.9837-0.738281 38.5189-0.386719 38.054-0.0351563 37.4603 0.140625 36.7376 0.140625 35.8275 0.140625 35.1058-0.139648 34.5726-0.700195 34.0394-1.26074 33.7728-2.04688 33.7728-3.05859 33.7728-4.10547 34.0423-4.91797 34.5814-5.49609 35.1204-6.07422 35.8197-6.36328 36.679-6.36328 37.5111-6.36328 38.1908-6.08008 38.7181-5.51367 39.2454-4.94727 39.5091-4.15039 39.5091-3.12305 39.5091-3.06055 39.5072-2.9668 39.5033-2.8418L34.8626-2.8418C34.9017-2.1582 35.0951-1.63477 35.4427-1.27148 35.7904-0.908203 36.224-0.726562 36.7435-0.726562 37.1302-0.726562 37.4603-0.828125 37.7337-1.03125 38.0072-1.23438 38.224-1.55859 38.3841-2.00391ZM34.9212-3.70898 38.3958-3.70898C38.349-4.23242 38.2161-4.625 37.9974-4.88672 37.6615-5.29297 37.2259-5.49609 36.6908-5.49609 36.2064-5.49609 35.7992-5.33398 35.4691-5.00977 35.139-4.68555 34.9564-4.25195 34.9212-3.70898ZM40.9434 0 40.9434-8.58984 44.752-8.58984C45.5176-8.58984 46.0996-8.5127 46.4981-8.3584 46.8965-8.2041 47.2148-7.93164 47.4531-7.54102 47.6914-7.15039 47.8106-6.71875 47.8106-6.24609 47.8106-5.63672 47.6133-5.12305 47.2188-4.70508 46.8242-4.28711 46.2148-4.02148 45.3906-3.9082 45.6914-3.76367 45.9199-3.62109 46.0762-3.48047 46.4082-3.17578 46.7227-2.79492 47.0195-2.33789L48.5137 0 47.084 0 45.9473-1.78711C45.6152-2.30273 45.3418-2.69727 45.127-2.9707 44.9121-3.24414 44.7197-3.43555 44.5498-3.54492 44.3799-3.6543 44.207-3.73047 44.0313-3.77344 43.9023-3.80078 43.6914-3.81445 43.3984-3.81445L42.0801-3.81445 42.0801 0ZM42.0801-4.79883 44.5234-4.79883C45.043-4.79883 45.4492-4.85254 45.7422-4.95996 46.0352-5.06738 46.2578-5.23926 46.4102-5.47559 46.5625-5.71191 46.6387-5.96875 46.6387-6.24609 46.6387-6.65234 46.4912-6.98633 46.1963-7.24805 45.9014-7.50977 45.4356-7.64062 44.7988-7.64062L42.0801-7.64062ZM53.7175-2.00391 54.8073-1.86914C54.6354-1.23242 54.3171-0.738281 53.8522-0.386719 53.3874-0.0351563 52.7936 0.140625 52.071 0.140625 51.1608 0.140625 50.4391-0.139648 49.9059-0.700195 49.3727-1.26074 49.1061-2.04688 49.1061-3.05859 49.1061-4.10547 49.3757-4.91797 49.9147-5.49609 50.4538-6.07422 51.153-6.36328 52.0124-6.36328 52.8444-6.36328 53.5241-6.08008 54.0514-5.51367 54.5788-4.94727 54.8425-4.15039 54.8425-3.12305 54.8425-3.06055 54.8405-2.9668 54.8366-2.8418L50.196-2.8418C50.235-2.1582 50.4284-1.63477 50.776-1.27148 51.1237-0.908203 51.5573-0.726562 52.0768-0.726562 52.4635-0.726562 52.7936-0.828125 53.0671-1.03125 53.3405-1.23438 53.5573-1.55859 53.7175-2.00391ZM50.2546-3.70898 53.7292-3.70898C53.6823-4.23242 53.5495-4.625 53.3307-4.88672 52.9948-5.29297 52.5592-5.49609 52.0241-5.49609 51.5397-5.49609 51.1325-5.33398 50.8024-5.00977 50.4723-4.68555 50.2897-4.25195 50.2546-3.70898ZM55.7025-1.85742 56.7454-2.02148C56.804-1.60352 56.9671-1.2832 57.2347-1.06055 57.5023-0.837891 57.8763-0.726562 58.3568-0.726562 58.8411-0.726562 59.2005-0.825195 59.4349-1.02246 59.6693-1.21973 59.7865-1.45117 59.7865-1.7168 59.7865-1.95508 59.6829-2.14258 59.4759-2.2793 59.3314-2.37305 58.972-2.49219 58.3978-2.63672 57.6244-2.83203 57.0882-3.00098 56.7894-3.14355 56.4906-3.28613 56.264-3.4834 56.1097-3.73535 55.9554-3.9873 55.8783-4.26562 55.8783-4.57031 55.8783-4.84766 55.9417-5.10449 56.0687-5.34082 56.1956-5.57715 56.3685-5.77344 56.5872-5.92969 56.7513-6.05078 56.9749-6.15332 57.2581-6.2373 57.5413-6.32129 57.8451-6.36328 58.1693-6.36328 58.6576-6.36328 59.0863-6.29297 59.4554-6.15234 59.8245-6.01172 60.097-5.82129 60.2728-5.58105 60.4486-5.34082 60.5697-5.01953 60.6361-4.61719L59.6048-4.47656C59.5579-4.79688 59.4222-5.04688 59.1976-5.22656 58.973-5.40625 58.6556-5.49609 58.2454-5.49609 57.7611-5.49609 57.4154-5.41602 57.2083-5.25586 57.0013-5.0957 56.8978-4.9082 56.8978-4.69336 56.8978-4.55664 56.9408-4.43359 57.0267-4.32422 57.1126-4.21094 57.2474-4.11719 57.431-4.04297 57.5365-4.00391 57.847-3.91406 58.3626-3.77344 59.1087-3.57422 59.6292-3.41113 59.9242-3.28418 60.2191-3.15723 60.4505-2.97266 60.6185-2.73047 60.7865-2.48828 60.8704-2.1875 60.8704-1.82812 60.8704-1.47656 60.7679-1.14551 60.5628-0.834961 60.3577-0.524414 60.0619-0.28418 59.6751-0.114258 59.2884 0.0556641 58.8509 0.140625 58.3626 0.140625 57.554 0.140625 56.9378-0.0273438 56.514-0.363281 56.0902-0.699219 55.8197-1.19727 55.7025-1.85742ZM66.2025 0 66.2025-0.914062C65.7181-0.210938 65.0599 0.140625 64.2279 0.140625 63.8607 0.140625 63.5179 0.0703125 63.1996-0.0703125 62.8812-0.210937 62.6449-0.387695 62.4906-0.600586 62.3363-0.813477 62.2279-1.07422 62.1654-1.38281 62.1224-1.58984 62.1009-1.91797 62.1009-2.36719L62.1009-6.22266 63.1556-6.22266 63.1556-2.77148C63.1556-2.2207 63.1771-1.84961 63.2201-1.6582 63.2865-1.38086 63.4271-1.16309 63.6419-1.00488 63.8568-0.84668 64.1224-0.767578 64.4388-0.767578 64.7552-0.767578 65.0521-0.848633 65.3294-1.01074 65.6068-1.17285 65.8031-1.39355 65.9183-1.67285 66.0335-1.95215 66.0912-2.35742 66.0912-2.88867L66.0912-6.22266 67.1458-6.22266 67.1458 0ZM68.7676 0 68.7676-8.58984 69.8223-8.58984 69.8223 0ZM73.7604-0.943359 73.9128-0.0117188C73.6159 0.0507812 73.3503 0.0820312 73.1159 0.0820312 72.7331 0.0820312 72.4362 0.0214844 72.2253-0.0996094 72.0143-0.220703 71.8659-0.379883 71.78-0.577148 71.694-0.774414 71.651-1.18945 71.651-1.82227L71.651-5.40234 70.8776-5.40234 70.8776-6.22266 71.651-6.22266 71.651-7.76367 72.6999-8.39648 72.6999-6.22266 73.7604-6.22266 73.7604-5.40234 72.6999-5.40234 72.6999-1.76367C72.6999-1.46289 72.7184-1.26953 72.7555-1.18359 72.7926-1.09766 72.8532-1.0293 72.9372-0.978516 73.0212-0.927734 73.1413-0.902344 73.2975-0.902344 73.4147-0.902344 73.569-0.916016 73.7604-0.943359Z" fill="#111111" transform="translate(13 21)"/></g></g></g><rect x="566.5" y="278.5" width="230" height="56" stroke="#444444" stroke-width="1.33333" stroke-linejoin="round" stroke-miterlimit="10" fill="#EEF3FA"/><text fill="#111111" font-family="Arial,Arial_MSFontService,sans-serif" font-weight="400" font-size="12" transform="translate(644 311)">ServiceResult</text><g clip-path="url(#clip27)"><g clip-path="url(#clip28)" filter="url(#fx6)" transform="translate(830 274)"><g><rect x="6.50006" y="6.91476" width="230" height="56" stroke="#444444" stroke-linejoin="round" stroke-miterlimit="10" fill="#EEF3FA"/></g></g><g clip-path="url(#clip29)" filter="url(#fx7)" transform="translate(894 292)"><g><path d="M7.05469-3.01172 8.19141-2.72461C7.95312-1.79102 7.52441-1.0791 6.90527-0.588867 6.28613-0.0986328 5.5293 0.146484 4.63477 0.146484 3.70898 0.146484 2.95605-0.0419922 2.37598-0.418945 1.7959-0.795898 1.35449-1.3418 1.05176-2.05664 0.749023-2.77148 0.597656-3.53906 0.597656-4.35938 0.597656-5.25391 0.768555-6.03418 1.11035-6.7002 1.45215-7.36621 1.93848-7.87207 2.56934-8.21777 3.2002-8.56348 3.89453-8.73633 4.65234-8.73633 5.51172-8.73633 6.23438-8.51758 6.82031-8.08008 7.40625-7.64258 7.81445-7.02734 8.04492-6.23438L6.92578-5.9707C6.72656-6.5957 6.4375-7.05078 6.05859-7.33594 5.67969-7.62109 5.20312-7.76367 4.62891-7.76367 3.96875-7.76367 3.41699-7.60547 2.97363-7.28906 2.53027-6.97266 2.21875-6.54785 2.03906-6.01465 1.85937-5.48145 1.76953-4.93164 1.76953-4.36523 1.76953-3.63477 1.87598-2.99707 2.08887-2.45215 2.30176-1.90723 2.63281-1.5 3.08203-1.23047 3.53125-0.960937 4.01758-0.826172 4.54102-0.826172 5.17773-0.826172 5.7168-1.00977 6.1582-1.37695 6.59961-1.74414 6.89844-2.28906 7.05469-3.01172ZM9.0651-3.11133C9.0651-4.26367 9.38542-5.11719 10.026-5.67188 10.5612-6.13281 11.2135-6.36328 11.9831-6.36328 12.8385-6.36328 13.5378-6.08301 14.0807-5.52246 14.6237-4.96191 14.8952-4.1875 14.8952-3.19922 14.8952-2.39844 14.7751-1.76855 14.5348-1.30957 14.2946-0.850586 13.945-0.494141 13.486-0.240234 13.027 0.0136719 12.526 0.140625 11.9831 0.140625 11.112 0.140625 10.4079-0.138672 9.87077-0.697266 9.33366-1.25586 9.0651-2.06055 9.0651-3.11133ZM10.1491-3.11133C10.1491-2.31445 10.3229-1.71777 10.6706-1.32129 11.0182-0.924805 11.4557-0.726562 11.9831-0.726562 12.5065-0.726562 12.9421-0.925781 13.2897-1.32422 13.6374-1.72266 13.8112-2.33008 13.8112-3.14648 13.8112-3.91602 13.6364-4.49902 13.2868-4.89551 12.9372-5.29199 12.5026-5.49023 11.9831-5.49023 11.4557-5.49023 11.0182-5.29297 10.6706-4.89844 10.3229-4.50391 10.1491-3.9082 10.1491-3.11133ZM16.1243 0 16.1243-6.22266 17.0677-6.22266 17.0677-5.34961C17.263-5.6543 17.5228-5.89941 17.847-6.08496 18.1712-6.27051 18.5404-6.36328 18.9544-6.36328 19.4154-6.36328 19.7933-6.26758 20.0882-6.07617 20.3831-5.88477 20.5911-5.61719 20.7122-5.27344 21.2044-6 21.8451-6.36328 22.6341-6.36328 23.2513-6.36328 23.7259-6.19238 24.0579-5.85059 24.39-5.50879 24.556-4.98242 24.556-4.27148L24.556 0 23.5072 0 23.5072-3.91992C23.5072-4.3418 23.473-4.64551 23.4046-4.83105 23.3363-5.0166 23.2122-5.16602 23.0326-5.2793 22.8529-5.39258 22.6419-5.44922 22.3997-5.44922 21.9622-5.44922 21.599-5.30371 21.3099-5.0127 21.0208-4.72168 20.8763-4.25586 20.8763-3.61523L20.8763 0 19.8216 0 19.8216-4.04297C19.8216-4.51172 19.7357-4.86328 19.5638-5.09766 19.3919-5.33203 19.1107-5.44922 18.7201-5.44922 18.4232-5.44922 18.1488-5.37109 17.8968-5.21484 17.6449-5.05859 17.4622-4.83008 17.349-4.5293 17.2357-4.22852 17.179-3.79492 17.179-3.22852L17.179 0ZM26.1243 2.38477 26.1243-6.22266 27.0853-6.22266 27.0853-5.41406C27.3118-5.73047 27.5677-5.96777 27.8529-6.12598 28.138-6.28418 28.4837-6.36328 28.89-6.36328 29.4212-6.36328 29.89-6.22656 30.2962-5.95312 30.7025-5.67969 31.0091-5.29395 31.2161-4.7959 31.4232-4.29785 31.5267-3.75195 31.5267-3.1582 31.5267-2.52148 31.4124-1.94824 31.1839-1.43848 30.9554-0.928711 30.6234-0.538086 30.1878-0.266602 29.7523 0.00488281 29.2943 0.140625 28.8138 0.140625 28.4622 0.140625 28.1468 0.0664062 27.8675-0.0820312 27.5882-0.230469 27.3587-0.417969 27.179-0.644531L27.179 2.38477ZM27.0794-3.07617C27.0794-2.27539 27.2415-1.68359 27.5658-1.30078 27.89-0.917969 28.2826-0.726562 28.7435-0.726562 29.2122-0.726562 29.6136-0.924805 29.9476-1.32129 30.2816-1.71777 30.4486-2.33203 30.4486-3.16406 30.4486-3.95703 30.2855-4.55078 29.9593-4.94531 29.6331-5.33984 29.2435-5.53711 28.7904-5.53711 28.3411-5.53711 27.9437-5.32715 27.598-4.90723 27.2523-4.4873 27.0794-3.87695 27.0794-3.07617ZM32.7676 0 32.7676-8.58984 33.8223-8.58984 33.8223 0ZM39.7174-2.00391 40.8073-1.86914C40.6354-1.23242 40.3171-0.738281 39.8522-0.386719 39.3874-0.0351563 38.7936 0.140625 38.071 0.140625 37.1608 0.140625 36.4391-0.139648 35.9059-0.700195 35.3727-1.26074 35.1061-2.04688 35.1061-3.05859 35.1061-4.10547 35.3757-4.91797 35.9147-5.49609 36.4538-6.07422 37.153-6.36328 38.0124-6.36328 38.8444-6.36328 39.5241-6.08008 40.0514-5.51367 40.5788-4.94727 40.8424-4.15039 40.8424-3.12305 40.8424-3.06055 40.8405-2.9668 40.8366-2.8418L36.196-2.8418C36.235-2.1582 36.4284-1.63477 36.776-1.27148 37.1237-0.908203 37.5573-0.726562 38.0768-0.726562 38.4635-0.726562 38.7936-0.828125 39.0671-1.03125 39.3405-1.23438 39.5573-1.55859 39.7174-2.00391ZM36.2546-3.70898 39.7292-3.70898C39.6823-4.23242 39.5495-4.625 39.3307-4.88672 38.9948-5.29297 38.5592-5.49609 38.0241-5.49609 37.5397-5.49609 37.1325-5.33398 36.8024-5.00977 36.4723-4.68555 36.2897-4.25195 36.2546-3.70898ZM44.4271-0.943359 44.5794-0.0117188C44.2826 0.0507812 44.0169 0.0820312 43.7826 0.0820312 43.3997 0.0820312 43.1029 0.0214844 42.8919-0.0996094 42.681-0.220703 42.5326-0.379883 42.4466-0.577148 42.3607-0.774414 42.3177-1.18945 42.3177-1.82227L42.3177-5.40234 41.5443-5.40234 41.5443-6.22266 42.3177-6.22266 42.3177-7.76367 43.3665-8.39648 43.3665-6.22266 44.4271-6.22266 44.4271-5.40234 43.3665-5.40234 43.3665-1.76367C43.3665-1.46289 43.3851-1.26953 43.4222-1.18359 43.4593-1.09766 43.5199-1.0293 43.6038-0.978516 43.6878-0.927734 43.8079-0.902344 43.9642-0.902344 44.0814-0.902344 44.2357-0.916016 44.4271-0.943359ZM45.4635-7.37695 45.4635-8.58984 46.5182-8.58984 46.5182-7.37695ZM45.4635 0 45.4635-6.22266 46.5182-6.22266 46.5182 0ZM47.7318-3.11133C47.7318-4.26367 48.0521-5.11719 48.6927-5.67188 49.2279-6.13281 49.8802-6.36328 50.6497-6.36328 51.5052-6.36328 52.2044-6.08301 52.7474-5.52246 53.2904-4.96191 53.5618-4.1875 53.5619-3.19922 53.5618-2.39844 53.4417-1.76855 53.2015-1.30957 52.9613-0.850586 52.6117-0.494141 52.1527-0.240234 51.6937 0.0136719 51.1927 0.140625 50.6497 0.140625 49.7786 0.140625 49.0745-0.138672 48.5374-0.697266 48.0003-1.25586 47.7318-2.06055 47.7318-3.11133ZM48.8158-3.11133C48.8158-2.31445 48.9896-1.71777 49.3372-1.32129 49.6849-0.924805 50.1224-0.726562 50.6497-0.726562 51.1732-0.726562 51.6087-0.925781 51.9564-1.32422 52.304-1.72266 52.4779-2.33008 52.4779-3.14648 52.4779-3.91602 52.3031-4.49902 51.9535-4.89551 51.6038-5.29199 51.1693-5.49023 50.6497-5.49023 50.1224-5.49023 49.6849-5.29297 49.3372-4.89844 48.9896-4.50391 48.8158-3.9082 48.8158-3.11133ZM54.791 0 54.791-6.22266 55.7402-6.22266 55.7402-5.33789C56.1973-6.02148 56.8574-6.36328 57.7207-6.36328 58.0957-6.36328 58.4404-6.2959 58.7549-6.16113 59.0693-6.02637 59.3047-5.84961 59.4609-5.63086 59.6172-5.41211 59.7266-5.15234 59.7891-4.85156 59.8281-4.65625 59.8477-4.31445 59.8477-3.82617L59.8477 0 58.793 0 58.793-3.78516C58.793-4.21484 58.752-4.53613 58.6699-4.74902 58.5879-4.96191 58.4424-5.13184 58.2334-5.25879 58.0244-5.38574 57.7793-5.44922 57.4981-5.44922 57.0488-5.44922 56.6611-5.30664 56.335-5.02148 56.0088-4.73633 55.8457-4.19531 55.8457-3.39844L55.8457 0ZM63.778 0 63.778-7.57617 60.9479-7.57617 60.9479-8.58984 67.7565-8.58984 67.7565-7.57617 64.9147-7.57617 64.9147 0ZM68.7969-7.37695 68.7969-8.58984 69.8516-8.58984 69.8516-7.37695ZM68.7969 0 68.7969-6.22266 69.8516-6.22266 69.8516 0ZM71.4577 0 71.4577-6.22266 72.401-6.22266 72.401-5.34961C72.5964-5.6543 72.8561-5.89941 73.1803-6.08496 73.5046-6.27051 73.8737-6.36328 74.2878-6.36328 74.7487-6.36328 75.1266-6.26758 75.4216-6.07617 75.7165-5.88477 75.9245-5.61719 76.0456-5.27344 76.5378-6 77.1784-6.36328 77.9675-6.36328 78.5846-6.36328 79.0592-6.19238 79.3913-5.85059 79.7233-5.50879 79.8893-4.98242 79.8893-4.27148L79.8893 0 78.8405 0 78.8405-3.91992C78.8405-4.3418 78.8063-4.64551 78.738-4.83105 78.6696-5.0166 78.5456-5.16602 78.3659-5.2793 78.1862-5.39258 77.9753-5.44922 77.7331-5.44922 77.2956-5.44922 76.9323-5.30371 76.6432-5.0127 76.3542-4.72168 76.2096-4.25586 76.2096-3.61523L76.2096 0 75.155 0 75.155-4.04297C75.155-4.51172 75.069-4.86328 74.8971-5.09766 74.7253-5.33203 74.444-5.44922 74.0534-5.44922 73.7565-5.44922 73.4821-5.37109 73.2301-5.21484 72.9782-5.05859 72.7956-4.83008 72.6823-4.5293 72.569-4.22852 72.5124-3.79492 72.5124-3.22852L72.5124 0ZM85.7175-2.00391 86.8073-1.86914C86.6354-1.23242 86.3171-0.738281 85.8522-0.386719 85.3874-0.0351563 84.7936 0.140625 84.071 0.140625 83.1608 0.140625 82.4391-0.139648 81.9059-0.700195 81.3727-1.26074 81.1061-2.04688 81.1061-3.05859 81.1061-4.10547 81.3757-4.91797 81.9147-5.49609 82.4538-6.07422 83.153-6.36328 84.0124-6.36328 84.8444-6.36328 85.5241-6.08008 86.0514-5.51367 86.5788-4.94727 86.8425-4.15039 86.8425-3.12305 86.8425-3.06055 86.8405-2.9668 86.8366-2.8418L82.196-2.8418C82.235-2.1582 82.4284-1.63477 82.776-1.27148 83.1237-0.908203 83.5573-0.726562 84.0768-0.726562 84.4635-0.726562 84.7936-0.828125 85.0671-1.03125 85.3405-1.23438 85.5573-1.55859 85.7175-2.00391ZM82.2546-3.70898 85.7292-3.70898C85.6823-4.23242 85.5495-4.625 85.3307-4.88672 84.9948-5.29297 84.5592-5.49609 84.0241-5.49609 83.5397-5.49609 83.1325-5.33398 82.8024-5.00977 82.4723-4.68555 82.2897-4.25195 82.2546-3.70898Z" fill="#111111" transform="translate(13.3333 21)"/></g></g></g><rect x="836.5" y="278.5" width="230" height="56" stroke="#444444" stroke-width="1.33333" stroke-linejoin="round" stroke-miterlimit="10" fill="#EEF3FA"/><text fill="#111111" font-family="Arial,Arial_MSFontService,sans-serif" font-weight="400" font-size="12" transform="translate(907.333 311)">CompletionTime</text><g clip-path="url(#clip30)"><g clip-path="url(#clip31)" filter="url(#fx8)" transform="translate(1100 274)"><g><rect x="6.5" y="6.91476" width="230" height="56" stroke="#444444" stroke-linejoin="round" stroke-miterlimit="10" fill="#EEF3FA"/></g></g><g clip-path="url(#clip32)" filter="url(#fx9)" transform="translate(1178 292)"><g><path d="M0.949219 0 0.949219-8.58984 7.16016-8.58984 7.16016-7.57617 2.08594-7.57617 2.08594-4.94531 6.83789-4.94531 6.83789-3.9375 2.08594-3.9375 2.08594-1.01367 7.35938-1.01367 7.35938 0ZM8.08789 0 10.3613-3.23438 8.25781-6.22266 9.57617-6.22266 10.5312-4.76367C10.7109-4.48633 10.8555-4.25391 10.9648-4.06641 11.1367-4.32422 11.2949-4.55273 11.4395-4.75195L12.4883-6.22266 13.748-6.22266 11.5977-3.29297 13.9121 0 12.6172 0 11.3398-1.93359 11-2.45508 9.36523 0ZM14.791 2.38477 14.791-6.22266 15.752-6.22266 15.752-5.41406C15.9785-5.73047 16.2344-5.96777 16.5195-6.12598 16.8047-6.28418 17.1504-6.36328 17.5566-6.36328 18.0879-6.36328 18.5566-6.22656 18.9629-5.95312 19.3691-5.67969 19.6758-5.29395 19.8828-4.7959 20.0898-4.29785 20.1934-3.75195 20.1934-3.1582 20.1934-2.52148 20.0791-1.94824 19.8506-1.43848 19.6221-0.928711 19.29-0.538086 18.8545-0.266602 18.4189 0.00488281 17.9609 0.140625 17.4805 0.140625 17.1289 0.140625 16.8135 0.0664062 16.5342-0.0820312 16.2549-0.230469 16.0254-0.417969 15.8457-0.644531L15.8457 2.38477ZM15.7461-3.07617C15.7461-2.27539 15.9082-1.68359 16.2324-1.30078 16.5566-0.917969 16.9492-0.726562 17.4102-0.726562 17.8789-0.726562 18.2803-0.924805 18.6143-1.32129 18.9482-1.71777 19.1152-2.33203 19.1152-3.16406 19.1152-3.95703 18.9521-4.55078 18.626-4.94531 18.2998-5.33984 17.9102-5.53711 17.457-5.53711 17.0078-5.53711 16.6104-5.32715 16.2646-4.90723 15.9189-4.4873 15.7461-3.87695 15.7461-3.07617ZM21.4635-7.37695 21.4635-8.58984 22.5182-8.58984 22.5182-7.37695ZM21.4635 0 21.4635-6.22266 22.5182-6.22266 22.5182 0ZM24.1126 0 24.1126-6.22266 25.0618-6.22266 25.0618-5.2793C25.304-5.7207 25.5277-6.01172 25.7327-6.15234 25.9378-6.29297 26.1634-6.36328 26.4095-6.36328 26.765-6.36328 27.1263-6.25 27.4935-6.02344L27.1302-5.04492C26.8724-5.19727 26.6146-5.27344 26.3568-5.27344 26.1263-5.27344 25.9193-5.2041 25.7357-5.06543 25.5521-4.92676 25.4212-4.73438 25.3431-4.48828 25.2259-4.11328 25.1673-3.70312 25.1673-3.25781L25.1673 0ZM28.0775 2.39648 27.9603 1.40625C28.1908 1.46875 28.3919 1.5 28.5638 1.5 28.7982 1.5 28.9857 1.46094 29.1263 1.38281 29.2669 1.30469 29.3822 1.19531 29.472 1.05469 29.5384 0.949219 29.6458 0.6875 29.7943 0.269531 29.8138 0.210938 29.8451 0.125 29.888 0.0117188L27.5267-6.22266 28.6634-6.22266 29.9583-2.61914C30.1263-2.16211 30.2767-1.68164 30.4095-1.17773 30.5306-1.66211 30.6751-2.13477 30.8431-2.5957L32.1732-6.22266 33.2279-6.22266 30.8607 0.105469C30.6068 0.789062 30.4095 1.25977 30.2689 1.51758 30.0814 1.86523 29.8665 2.12012 29.6243 2.28223 29.3822 2.44434 29.0931 2.52539 28.7572 2.52539 28.554 2.52539 28.3275 2.48242 28.0775 2.39648ZM36.4447 0 36.4447-7.57617 33.6146-7.57617 33.6146-8.58984 40.4232-8.58984 40.4232-7.57617 37.5814-7.57617 37.5814 0ZM41.4635-7.37695 41.4635-8.58984 42.5182-8.58984 42.5182-7.37695ZM41.4635 0 41.4635-6.22266 42.5182-6.22266 42.5182 0ZM44.1244 0 44.1244-6.22266 45.0677-6.22266 45.0677-5.34961C45.263-5.6543 45.5228-5.89941 45.847-6.08496 46.1712-6.27051 46.5404-6.36328 46.9544-6.36328 47.4154-6.36328 47.7933-6.26758 48.0882-6.07617 48.3831-5.88477 48.5911-5.61719 48.7122-5.27344 49.2044-6 49.8451-6.36328 50.6341-6.36328 51.2513-6.36328 51.7259-6.19238 52.0579-5.85059 52.39-5.50879 52.556-4.98242 52.556-4.27148L52.556 0 51.5072 0 51.5072-3.91992C51.5072-4.3418 51.473-4.64551 51.4046-4.83105 51.3363-5.0166 51.2122-5.16602 51.0326-5.2793 50.8529-5.39258 50.6419-5.44922 50.3997-5.44922 49.9622-5.44922 49.599-5.30371 49.3099-5.0127 49.0208-4.72168 48.8763-4.25586 48.8763-3.61523L48.8763 0 47.8216 0 47.8216-4.04297C47.8216-4.51172 47.7357-4.86328 47.5638-5.09766 47.3919-5.33203 47.1107-5.44922 46.7201-5.44922 46.4232-5.44922 46.1488-5.37109 45.8968-5.21484 45.6449-5.05859 45.4622-4.83008 45.349-4.5293 45.2357-4.22852 45.179-3.79492 45.179-3.22852L45.179 0ZM58.3841-2.00391 59.474-1.86914C59.3021-1.23242 58.9837-0.738281 58.5189-0.386719 58.054-0.0351563 57.4603 0.140625 56.7376 0.140625 55.8275 0.140625 55.1058-0.139648 54.5726-0.700195 54.0394-1.26074 53.7728-2.04688 53.7728-3.05859 53.7728-4.10547 54.0423-4.91797 54.5814-5.49609 55.1204-6.07422 55.8197-6.36328 56.679-6.36328 57.5111-6.36328 58.1908-6.08008 58.7181-5.51367 59.2454-4.94727 59.5091-4.15039 59.5091-3.12305 59.5091-3.06055 59.5072-2.9668 59.5033-2.8418L54.8626-2.8418C54.9017-2.1582 55.0951-1.63477 55.4427-1.27148 55.7904-0.908203 56.224-0.726562 56.7435-0.726562 57.1302-0.726562 57.4603-0.828125 57.7337-1.03125 58.0072-1.23438 58.224-1.55859 58.3841-2.00391ZM54.9212-3.70898 58.3958-3.70898C58.349-4.23242 58.2161-4.625 57.9974-4.88672 57.6615-5.29297 57.2259-5.49609 56.6908-5.49609 56.2064-5.49609 55.7992-5.33398 55.4691-5.00977 55.139-4.68555 54.9564-4.25195 54.9212-3.70898Z" fill="#111111" transform="translate(13 21)"/></g></g></g><rect x="1106.5" y="278.5" width="230" height="56" stroke="#444444" stroke-width="1.33333" stroke-linejoin="round" stroke-miterlimit="10" fill="#EEF3FA"/><text fill="#111111" font-family="Arial,Arial_MSFontService,sans-serif" font-weight="400" font-size="12" transform="translate(1191 311)">ExpiryTime</text><g clip-path="url(#clip33)" filter="url(#fx10)" transform="translate(667 103)"><g><path d="M14.5001 5.09979 14.5001 5.09979C14.7763 5.09979 15.0001 5.32365 15.0001 5.59979L15.0001 58.2665 14.0001 58.2665 14.0001 5.59979 14.5001 6.09979 14.5001 6.09979ZM14.5001 58.2665 18.5001 55.5998 14.5002 63.5998 10.5001 55.5998Z" fill="#444444"/></g></g><path d="M681.5 105.833 681.5 105.833C681.868 105.833 682.167 106.132 682.167 106.5L682.167 159.167 680.833 159.167 680.833 106.5 681.5 107.167 681.5 107.167ZM681.5 159.167 685.5 156.5 681.5 164.5 677.5 156.5Z" fill="#444444"/><text fill="#444444" font-family="Calibri,Calibri_MSFontService,sans-serif" font-weight="400" font-size="11" transform="translate(685 139)">HasSubtype</text><g clip-path="url(#clip34)" filter="url(#fx11)" transform="translate(127 216)"><g><path d="M0-0.5 270-0.5C270.276-0.5 270.5-0.276142 270.5 0L270.5 58 270 57.5 534.667 57.5 534.667 58.5 270 58.5C269.724 58.5 269.5 58.2761 269.5 58L269.5 0 270 0.5 0 0.5ZM534.667 58 532 54 540 58 532 62Z" fill="#444444" transform="matrix(-1 0 0 1 554.5 6.59979)"/></g></g><path d="M0-0.666667 270-0.666667C270.368-0.666667 270.667-0.36819 270.667 0L270.667 58 270 57.3333 534.667 57.3333 534.667 58.6667 270 58.6667C269.632 58.6667 269.333 58.3682 269.333 58L269.333 0 270 0.666667 0 0.666667ZM534.667 58 532 54 540 58 532 62Z" fill="#444444" transform="matrix(-1 0 0 1 681.5 220.5)"/><text fill="#444444" font-family="Calibri,Calibri_MSFontService,sans-serif" font-weight="400" font-size="11" transform="translate(415 253)">HasProperty</text><g clip-path="url(#clip35)" filter="url(#fx12)" transform="translate(397 216)"><g><path d="M0-0.5 135-0.5C135.276-0.5 135.5-0.276142 135.5 0L135.5 58 135 57.5 264.667 57.5 264.667 58.5 135 58.5C134.724 58.5 134.5 58.2761 134.5 58L134.5 0 135 0.5 0 0.5ZM264.667 58 262 54 270 58 262 62Z" fill="#444444" transform="matrix(-1 0 0 1 284.5 6.59979)"/></g></g><path d="M0-0.666667 135-0.666667C135.368-0.666667 135.667-0.36819 135.667 0L135.667 58 135 57.3333 264.667 57.3333 264.667 58.6667 135 58.6667C134.632 58.6667 134.333 58.3682 134.333 58L134.333 0 135 0.666667 0 0.666667ZM264.667 58 262 54 270 58 262 62Z" fill="#444444" transform="matrix(-1 0 0 1 681.5 220.5)"/><text fill="#444444" font-family="Calibri,Calibri_MSFontService,sans-serif" font-weight="400" font-size="11" transform="translate(550 253)">HasProperty</text><g clip-path="url(#clip36)" filter="url(#fx13)" transform="translate(667 217)"><g><path d="M14.5001 5.09979 14.5001 5.09979C14.7763 5.09979 15.0001 5.32365 15.0001 5.59979L15.0001 58.2665 14.0001 58.2665 14.0001 5.59979 14.5001 6.09979 14.5001 6.09979ZM14.5001 58.2665 18.5001 55.5998 14.5002 63.5998 10.5001 55.5998Z" fill="#444444"/></g></g><path d="M681.5 219.833 681.5 219.833C681.868 219.833 682.167 220.132 682.167 220.5L682.167 273.167 680.833 273.167 680.833 220.5 681.5 221.167 681.5 221.167ZM681.5 273.167 685.5 270.5 681.5 278.5 677.5 270.5Z" fill="#444444"/><text fill="#444444" font-family="Calibri,Calibri_MSFontService,sans-serif" font-weight="400" font-size="11" transform="translate(685 253)">HasProperty</text><g clip-path="url(#clip37)" filter="url(#fx14)" transform="translate(676 216)"><g><path d="M5.50006 6.09979 140.5 6.09979C140.776 6.09979 141 6.32365 141 6.59979L141 64.5998 140.5 64.0998 270.167 64.0998 270.167 65.0998 140.5 65.0998C140.224 65.0998 140 64.8759 140 64.5998L140 6.59979 140.5 7.09979 5.50006 7.09979ZM270.167 64.5998 267.5 60.5998 275.5 64.5998 267.5 68.5998Z" fill="#444444"/></g></g><path d="M681.5 219.833 816.5 219.833C816.868 219.833 817.167 220.132 817.167 220.5L817.167 278.5 816.5 277.833 946.167 277.833 946.167 279.167 816.5 279.167C816.132 279.167 815.833 278.868 815.833 278.5L815.833 220.5 816.5 221.167 681.5 221.167ZM946.167 278.5 943.5 274.5 951.5 278.5 943.5 282.5Z" fill="#444444"/><text fill="#444444" font-family="Calibri,Calibri_MSFontService,sans-serif" font-weight="400" font-size="11" transform="translate(820 253)">HasProperty</text><g clip-path="url(#clip38)" filter="url(#fx15)" transform="translate(676 216)"><g><path d="M5.50006 6.09979 275.5 6.09979C275.776 6.09979 276 6.32365 276 6.59979L276 64.5998 275.5 64.0998 540.167 64.0998 540.167 65.0998 275.5 65.0998C275.224 65.0998 275 64.8759 275 64.5998L275 6.59979 275.5 7.09979 5.50006 7.09979ZM540.167 64.5998 537.5 60.5998 545.5 64.5998 537.5 68.5998Z" fill="#444444"/></g></g><path d="M681.5 219.833 951.5 219.833C951.868 219.833 952.167 220.132 952.167 220.5L952.167 278.5 951.5 277.833 1216.17 277.833 1216.17 279.167 951.5 279.167C951.132 279.167 950.833 278.868 950.833 278.5L950.833 220.5 951.5 221.167 681.5 221.167ZM1216.17 278.5 1213.5 274.5 1221.5 278.5 1213.5 282.5Z" fill="#444444"/><text fill="#444444" font-family="Calibri,Calibri_MSFontService,sans-serif" font-weight="400" font-size="11" transform="translate(955 253)">HasProperty</text></g></svg>